<svg xmlns="http://www.w3.org/2000/svg" width="457" height="457" viewBox="0 0 457 457"><path fill="#fff" d="M-.095.122v460h458v-460h-458zm448.422 217.155c-.806.817-1.861 1.226-2.911 1.226-1.056 0-2.105-.409-2.911-1.226-1.606-1.629-1.606-4.276 0-5.908l2.911-2.954 2.911 2.954c1.607 1.631 1.607 4.279 0 5.908zm-1.754-15.994c-.833.844-1.924 1.267-3.009 1.267-1.091 0-2.176-.422-3.009-1.267-1.659-1.683-1.659-4.419 0-6.105l3.009-3.052 3.009 3.052c1.659 1.686 1.659 4.422 0 6.105zm-3.331-23.82c1.707 1.733 1.707 4.546 0 6.276-.855.868-1.978 1.303-3.093 1.303-1.121 0-2.237-.435-3.093-1.303-1.707-1.73-1.707-4.543 0-6.276l3.093-3.139 3.093 3.139zm-48.842 145.468c-1.006 0-2.005-.389-2.772-1.167-1.53-1.552-1.53-4.073 0-5.627l2.772-2.813 2.772 2.813c1.53 1.554 1.53 4.075 0 5.627-.767.778-1.772 1.167-2.772 1.167zm1.489 15.988c-.717.728-1.656 1.091-2.591 1.091-.939 0-1.874-.363-2.591-1.091-1.429-1.449-1.429-3.806 0-5.257l2.591-2.629 2.591 2.629c1.428 1.452 1.428 3.808 0 5.257zm1.148-55.397c-.901.914-2.083 1.372-3.258 1.372-1.182 0-2.356-.458-3.258-1.372-1.797-1.822-1.797-4.785 0-6.611l3.258-3.305 3.258 3.305c1.797 1.826 1.797 4.789 0 6.611zm-45.393 32.427c-.919.932-2.121 1.396-3.317 1.396-1.203 0-2.398-.465-3.317-1.396-1.829-1.855-1.829-4.872 0-6.73l3.317-3.365 3.317 3.365c1.829 1.858 1.829 4.874 0 6.73zm-.196 17.622c-.854.866-1.972 1.299-3.084 1.299-1.118 0-2.23-.433-3.084-1.299-1.702-1.726-1.702-4.53 0-6.259l3.084-3.13 3.084 3.13c1.702 1.729 1.702 4.533 0 6.259zm-106.44 11.134c-.852.862-1.966 1.294-3.074 1.294-1.114 0-2.223-.432-3.074-1.294-1.695-1.72-1.695-4.515 0-6.237l3.074-3.119 3.074 3.119c1.695 1.722 1.695 4.517 0 6.237zm-.798 30.12c-.723.732-1.669 1.099-2.61 1.099-.946 0-1.888-.366-2.61-1.099-1.439-1.46-1.439-3.834 0-5.297l2.61-2.647 2.61 2.647c1.439 1.463 1.439 3.837 0 5.297zm-224.811-154.709c-1.305-1.323-1.305-3.475 0-4.8l2.366-2.4 2.366 2.4c1.305 1.326 1.305 3.477 0 4.8-.655.664-1.513.996-2.366.996-.858 0-1.711-.332-2.366-.996zm.175 19.709c-.664.673-1.534 1.01-2.399 1.01-.87 0-1.735-.337-2.399-1.01-1.323-1.342-1.323-3.523 0-4.868l2.399-2.434 2.399 2.434c1.323 1.344 1.323 3.526 0 4.868zm4.14-38.458l2.325-2.359 2.325 2.359c1.283 1.303 1.283 3.418 0 4.719-.644.653-1.487.979-2.325.979-.843 0-1.682-.327-2.325-.979-1.283-1.301-1.283-3.416 0-4.719zm-.06 50.325l2.478-2.514 2.478 2.514c1.367 1.389 1.367 3.642 0 5.027-.686.695-1.584 1.043-2.478 1.043-.898 0-1.792-.348-2.478-1.043-1.366-1.386-1.366-3.638 0-5.027zm.419 17.684l2.499-2.535 2.499 2.535c1.378 1.4 1.378 3.673 0 5.07-.691.702-1.598 1.053-2.499 1.053-.906 0-1.807-.351-2.499-1.053-1.379-1.397-1.379-3.669 0-5.07zm1.156 18.815l2.523-2.56 2.523 2.56c1.392 1.414 1.392 3.709 0 5.12-.698.708-1.613 1.062-2.523 1.062-.915 0-1.825-.354-2.523-1.062-1.392-1.411-1.392-3.706 0-5.12zm5.85-46.087c-.887 0-1.77-.344-2.447-1.03-1.35-1.369-1.35-3.594 0-4.965l2.447-2.482 2.447 2.482c1.35 1.371 1.35 3.596 0 4.965-.677.686-1.565 1.03-2.447 1.03zm1.707-14.622c-.873 0-1.74-.338-2.406-1.013-1.328-1.346-1.328-3.535 0-4.883l2.406-2.441 2.406 2.441c1.328 1.349 1.328 3.537 0 4.883-.666.675-1.538 1.013-2.406 1.013zm-.923-53.532c-.61.619-1.411.929-2.206.929-.8 0-1.596-.31-2.206-.929-1.217-1.234-1.217-3.24 0-4.477l2.206-2.239 2.206 2.239c1.217 1.236 1.217 3.242 0 4.477zm8.098 41.063c-.867 0-1.729-.335-2.39-1.006-1.319-1.337-1.319-3.511 0-4.851l2.39-2.425 2.39 2.425c1.319 1.339 1.319 3.513 0 4.851-.661.67-1.528 1.006-2.39 1.006zm2.878 26.776l2.478 2.514c1.367 1.389 1.367 3.642 0 5.027-.686.695-1.584 1.043-2.478 1.043-.898 0-1.792-.348-2.478-1.043-1.367-1.386-1.367-3.639 0-5.027l2.478-2.514zm-.131-58.371c-.842 0-1.679-.326-2.322-.978-1.281-1.299-1.281-3.411 0-4.712l2.322-2.356 2.322 2.356c1.281 1.301 1.281 3.413 0 4.712-.643.652-1.485.978-2.322.978zm.61-15.897c-.616.625-1.422.937-2.225.937-.807 0-1.609-.312-2.225-.937-1.227-1.244-1.227-3.267 0-4.514l2.225-2.257 2.225 2.257c1.227 1.246 1.227 3.269 0 4.514zm-4.932 24.625l2.338 2.373c1.29 1.31 1.29 3.437 0 4.744-.647.657-1.495.985-2.338.985-.848 0-1.691-.328-2.338-.985-1.29-1.308-1.29-3.434 0-4.744l2.338-2.373zm-1.677 67.431l2.525-2.562 2.525 2.562c1.393 1.415 1.393 3.711 0 5.124-.699.708-1.614 1.062-2.525 1.062-.916 0-1.826-.354-2.525-1.062-1.393-1.413-1.393-3.709 0-5.124zm1.163 16.634l2.565-2.603 2.565 2.603c1.416 1.438 1.416 3.771 0 5.206-.71.721-1.64 1.08-2.565 1.08-.93 0-1.855-.359-2.565-1.08-1.415-1.435-1.415-3.768 0-5.206zm2.778 15.757l2.595-2.633 2.595 2.633c1.432 1.455 1.432 3.814 0 5.267-.718.729-1.659 1.093-2.595 1.093-.941 0-1.877-.364-2.595-1.093-1.432-1.452-1.432-3.812 0-5.267zm5.671-59.809c-.896 0-1.789-.347-2.473-1.041-1.364-1.384-1.364-3.632 0-5.019l2.473-2.509 2.473 2.509c1.364 1.386 1.364 3.635 0 5.019-.684.694-1.581 1.041-2.473 1.041zm112.646-153.426c1.508 1.533 1.508 4.019 0 5.549-.757.767-1.749 1.151-2.734 1.151-.991 0-1.978-.384-2.734-1.151-1.508-1.53-1.508-4.016 0-5.549l2.734-2.774 2.734 2.774zm.766-34.148l2.451-2.487 2.451 2.487c1.352 1.374 1.352 3.602 0 4.973-.678.688-1.567 1.032-2.451 1.032-.889 0-1.772-.344-2.451-1.032-1.352-1.371-1.352-3.6 0-4.973zm11.49 31.94l3.059-3.104 3.059 3.104c1.688 1.714 1.688 4.496 0 6.207-.847.859-1.956 1.288-3.059 1.288-1.109 0-2.212-.429-3.059-1.288-1.687-1.711-1.687-4.492 0-6.207zm-.097-23.723l2.7-2.74 2.7 2.74c1.49 1.513 1.49 3.969 0 5.479-.748.758-1.727 1.137-2.7 1.137-.979 0-1.953-.379-2.7-1.137-1.489-1.51-1.489-3.966 0-5.479zm215.548 89.505c-1.166 1.184-2.694 1.775-4.215 1.775-1.528 0-3.049-.591-4.215-1.775-2.326-2.358-2.326-6.191 0-8.554l4.215-4.277 4.215 4.277c2.326 2.363 2.326 6.196 0 8.554zm2.538 15.886c2.362 2.4 2.362 6.293 0 8.689-1.186 1.202-2.738 1.803-4.282 1.803-1.553 0-3.097-.601-4.282-1.803-2.362-2.396-2.362-6.289 0-8.689l4.282-4.344 4.282 4.344zm-13.11 24.443c-1.274 1.292-2.944 1.939-4.604 1.939-1.67 0-3.33-.646-4.604-1.939-2.54-2.576-2.54-6.763 0-9.344l4.604-4.672 4.604 4.672c2.54 2.581 2.54 6.768 0 9.344zm.159 27.325c-1.233 1.25-2.849 1.875-4.455 1.875-1.615 0-3.222-.625-4.455-1.875-2.457-2.492-2.457-6.543 0-9.04l4.455-4.52 4.455 4.52c2.457 2.497 2.457 6.548 0 9.04zm-4.404-51.783c-1.299 1.317-3 1.976-4.691 1.976-1.701 0-3.393-.659-4.691-1.976-2.588-2.625-2.588-6.89 0-9.52l4.691-4.76 4.691 4.76c2.588 2.63 2.588 6.895 0 9.52zm-11.157 39.035c-1.329 1.347-3.069 2.021-4.8 2.021-1.74 0-3.471-.674-4.8-2.021-2.647-2.685-2.647-7.049 0-9.739l4.8-4.87 4.8 4.87c2.648 2.69 2.648 7.054 0 9.739zm-.878 24.155c-1.263 1.281-2.918 1.921-4.563 1.921-1.654 0-3.301-.641-4.563-1.921-2.518-2.553-2.518-6.703 0-9.261l4.563-4.63 4.563 4.63c2.518 2.558 2.518 6.707 0 9.261zm5.787-83.511c-1.271 1.289-2.936 1.934-4.592 1.934-1.665 0-3.321-.645-4.592-1.934-2.533-2.569-2.533-6.745 0-9.318l4.592-4.659 4.592 4.659c2.534 2.574 2.534 6.75 0 9.318zm-9.018 26.571c2.758 2.801 2.758 7.346 0 10.143-1.384 1.403-3.195 2.104-4.998 2.104-1.812 0-3.614-.702-4.998-2.104-2.758-2.796-2.758-7.341 0-10.143l4.998-5.071 4.998 5.071zm-59.787 182.346c-1.153 0-2.3-.446-3.18-1.339-1.754-1.779-1.754-4.671 0-6.452l3.18-3.227 3.18 3.227c1.754 1.781 1.754 4.673 0 6.452-.88.893-2.034 1.339-3.18 1.339zm1.847 16.258c-.772.784-1.785 1.176-2.792 1.176-1.013 0-2.02-.392-2.792-1.176-1.54-1.562-1.54-4.101 0-5.665l2.792-2.833 2.792 2.833c1.54 1.564 1.54 4.103 0 5.665zm-3.53-54.256c-2.034-2.062-2.034-5.414 0-7.479l3.686-3.74 3.686 3.74c2.034 2.065 2.034 5.417 0 7.479-1.02 1.034-2.356 1.552-3.686 1.552-1.337 0-2.666-.518-3.686-1.552zm-113.014 15.482c-.909.922-2.099 1.383-3.283 1.383-1.19 0-2.375-.461-3.283-1.383-1.811-1.837-1.811-4.822 0-6.662l3.283-3.332 3.283 3.332c1.811 1.84 1.811 4.825 0 6.662zm.053 31.766c-.758.769-1.751 1.153-2.739 1.153-.993 0-1.98-.385-2.739-1.153-1.511-1.532-1.511-4.022 0-5.558l2.739-2.779 2.739 2.779c1.51 1.535 1.51 4.026 0 5.558zm-88.545-60.154c-.998 0-1.99-.387-2.752-1.159-1.518-1.539-1.518-4.042 0-5.584l2.752-2.792 2.752 2.792c1.518 1.542 1.518 4.045 0 5.584-.762.772-1.76 1.159-2.752 1.159zm1.576 21.419c-.735.745-1.699 1.118-2.657 1.118-.963 0-1.921-.373-2.657-1.118-1.465-1.486-1.465-3.902 0-5.392l2.657-2.695 2.657 2.695c1.465 1.489 1.465 3.905 0 5.392zm-39.168-134.666c-1.328-1.347-1.328-3.536 0-4.885l2.408-2.443 2.408 2.443c1.328 1.349 1.328 3.539 0 4.885-.667.676-1.54 1.014-2.408 1.014-.873 0-1.741-.338-2.408-1.014zm1.066 30.756c-.684.694-1.581 1.041-2.472 1.041-.896 0-1.788-.347-2.472-1.041-1.364-1.383-1.364-3.631 0-5.017l2.472-2.508 2.472 2.508c1.364 1.386 1.364 3.634 0 5.017zm-2.568-15.591c-.669.678-1.544 1.017-2.416 1.017-.876 0-1.747-.339-2.416-1.017-1.332-1.351-1.332-3.548 0-4.901l2.416-2.451 2.416 2.451c1.332 1.353 1.332 3.55 0 4.901zm-3.387 58.404l2.574-2.611 2.574 2.611c1.42 1.442 1.42 3.783 0 5.223-.712.723-1.646 1.084-2.574 1.084-.933 0-1.861-.361-2.574-1.084-1.42-1.44-1.42-3.781 0-5.223zm.194 16.203l2.63-2.669 2.63 2.669c1.451 1.474 1.451 3.865 0 5.337-.728.738-1.681 1.107-2.63 1.107-.954 0-1.902-.369-2.63-1.107-1.452-1.472-1.452-3.863 0-5.337zm5.041-26.525c-.924 0-1.843-.357-2.548-1.072-1.406-1.426-1.406-3.743 0-5.171l2.548-2.585 2.548 2.585c1.406 1.428 1.406 3.745 0 5.171-.705.714-1.629 1.072-2.548 1.072zm1.469-18.164c-1.405-1.425-1.405-3.741 0-5.168l2.547-2.584 2.547 2.584c1.405 1.427 1.405 3.743 0 5.168-.705.715-1.628 1.072-2.547 1.072-.924 0-1.842-.357-2.547-1.072zm6.062-28.725c-1.382-1.401-1.382-3.68 0-5.083l2.505-2.542 2.505 2.542c1.382 1.404 1.382 3.682 0 5.083-.694.703-1.602 1.055-2.505 1.055-.907 0-1.811-.352-2.505-1.055zm16.984-5.893l2.651 2.69c1.463 1.486 1.463 3.897 0 5.38-.734.745-1.695 1.117-2.651 1.117-.961 0-1.917-.372-2.651-1.117-1.463-1.483-1.463-3.895 0-5.38l2.651-2.69zm.646-27.308l2.551-2.589 2.551 2.589c1.408 1.43 1.408 3.75 0 5.177-.706.716-1.631 1.075-2.551 1.075-.925 0-1.845-.358-2.551-1.075-1.407-1.427-1.407-3.747 0-5.177zm-5.357 18.489c-.69.7-1.594 1.049-2.493 1.049-.904 0-1.803-.35-2.493-1.049-1.375-1.395-1.375-3.661 0-5.058l2.493-2.529 2.493 2.529c1.374 1.397 1.374 3.663 0 5.058zm-3.713 29.708c-.71.72-1.64 1.08-2.565 1.08-.93 0-1.855-.36-2.565-1.08-1.415-1.435-1.415-3.767 0-5.205l2.565-2.602 2.565 2.602c1.415 1.438 1.415 3.77 0 5.205zm-.301-45.04c-.661.67-1.526 1.005-2.387 1.005-.865 0-1.726-.335-2.387-1.005-1.316-1.335-1.316-3.505 0-4.843l2.387-2.421 2.387 2.421c1.317 1.338 1.317 3.508 0 4.843zm-6.256 86.784l2.65-2.689 2.65 2.689c1.462 1.485 1.462 3.896 0 5.378-.733.744-1.694 1.116-2.65 1.116-.961 0-1.917-.372-2.65-1.116-1.462-1.482-1.462-3.892 0-5.378zm.466 17.096l2.661-2.699 2.661 2.699c1.467 1.491 1.467 3.911 0 5.399-.737.746-1.701 1.12-2.661 1.12-.965 0-1.924-.374-2.661-1.12-1.468-1.488-1.468-3.908 0-5.399zm4.112-26.649c-.954 0-1.902-.369-2.629-1.107-1.451-1.471-1.451-3.862 0-5.336l2.629-2.668 2.629 2.668c1.451 1.474 1.451 3.865 0 5.336-.727.738-1.681 1.107-2.629 1.107zm2.225-16.534c-1.458-1.479-1.458-3.883 0-5.364l2.644-2.683 2.644 2.683c1.458 1.481 1.458 3.885 0 5.364-.732.742-1.69 1.113-2.644 1.113-.959 0-1.912-.371-2.644-1.113zm7.442 32.219l2.765-2.805 2.765 2.805c1.525 1.55 1.525 4.064 0 5.611-.766.776-1.768 1.164-2.765 1.164-1.002 0-2-.388-2.765-1.164-1.525-1.547-1.525-4.061 0-5.611zm6.421-10.984c-.763.773-1.762 1.16-2.756 1.16-.999 0-1.993-.387-2.756-1.16-1.521-1.542-1.521-4.048 0-5.593l2.756-2.796 2.756 2.796c1.521 1.545 1.521 4.051 0 5.593zm-3.859-33.499c-1.505-1.527-1.505-4.008 0-5.538l2.729-2.769 2.729 2.769c1.505 1.529 1.505 4.011 0 5.538-.755.766-1.745 1.149-2.729 1.149-.989 0-1.974-.383-2.729-1.149zm6.429-29.108c-.992 0-1.978-.384-2.735-1.152-1.509-1.53-1.509-4.018 0-5.55l2.735-2.775 2.735 2.775c1.509 1.533 1.509 4.02 0 5.55-.757.768-1.749 1.152-2.735 1.152zm3.986 10.705l2.895-2.937 2.895 2.937c1.597 1.622 1.597 4.254 0 5.874-.801.812-1.851 1.219-2.895 1.219-1.049 0-2.093-.406-2.895-1.219-1.597-1.62-1.597-4.252 0-5.874zm49.383-49.537l3.321 3.37c1.832 1.861 1.832 4.882 0 6.74-.919.933-2.124 1.398-3.321 1.398-1.204 0-2.402-.466-3.321-1.398-1.832-1.858-1.832-4.878 0-6.74l3.321-3.37zm.113-27.727l3.165-3.211 3.165 3.211c1.746 1.774 1.746 4.652 0 6.422-.876.889-2.024 1.333-3.165 1.333-1.147 0-2.289-.444-3.165-1.333-1.746-1.771-1.746-4.648 0-6.422zm179.346 48.621c-3.017-3.059-3.017-8.031 0-11.095l5.468-5.547 5.468 5.547c3.017 3.064 3.017 8.036 0 11.095-1.514 1.535-3.496 2.302-5.468 2.302-1.983 0-3.955-.768-5.468-2.302zm2.021 49.576c-1.403 1.423-3.242 2.135-5.07 2.135-1.839 0-3.667-.711-5.07-2.135-2.798-2.837-2.798-7.448 0-10.29l5.07-5.145 5.07 5.145c2.798 2.842 2.798 7.453 0 10.29zm-4.871-23.687c-1.535 1.557-3.545 2.335-5.545 2.335-2.011 0-4.01-.778-5.545-2.335-3.059-3.102-3.059-8.145 0-11.252l5.545-5.626 5.545 5.626c3.059 3.107 3.059 8.15 0 11.252zm-4.89-38.88c-1.563 1.585-3.611 2.377-5.647 2.377-2.048 0-4.084-.792-5.647-2.377-3.115-3.16-3.115-8.294 0-11.459l5.647-5.729 5.647 5.729c3.115 3.164 3.115 8.299 0 11.459zm-12.882 3.373l5.705 5.789c3.147 3.197 3.147 8.385 0 11.577-1.579 1.602-3.647 2.402-5.705 2.402-2.068 0-4.126-.801-5.705-2.402-3.147-3.191-3.147-8.379 0-11.577l5.705-5.789zm-34.356 101.478c-2.411-2.445-2.411-6.419 0-8.869l4.37-4.434 4.37 4.434c2.411 2.45 2.411 6.424 0 8.869-1.209 1.227-2.794 1.84-4.37 1.84-1.585 0-3.161-.613-4.37-1.84zm1.282 46.253c2.013 2.044 2.013 5.361 0 7.401-1.01 1.024-2.332 1.536-3.647 1.536-1.322 0-2.638-.512-3.647-1.536-2.013-2.04-2.013-5.357 0-7.401l3.647-3.701 3.647 3.701zm-115.204-71.379c-1.345 0-2.683-.521-3.709-1.562-2.046-2.075-2.046-5.449 0-7.528l3.709-3.764 3.709 3.764c2.046 2.079 2.046 5.453 0 7.528-1.026 1.041-2.371 1.562-3.709 1.562zm1.392 33.256c-.955.969-2.205 1.452-3.449 1.452-1.25 0-2.495-.483-3.449-1.452-1.903-1.93-1.903-5.066 0-7l3.449-3.499 3.449 3.499c1.903 1.934 1.903 5.07 0 7zm-7.924-53.188c-1.273 0-2.539-.493-3.511-1.479-1.937-1.964-1.937-5.157 0-7.125l3.511-3.562 3.511 3.562c1.937 1.968 1.937 5.161 0 7.125-.972.986-2.245 1.479-3.511 1.479zm14.934-17.547c-.99 1.004-2.287 1.506-3.577 1.506-1.297 0-2.586-.502-3.577-1.506-1.973-2.001-1.973-5.253 0-7.258l3.577-3.629 3.577 3.629c1.973 2.005 1.973 5.257 0 7.258zm3.18 7.877l3.806 3.862c2.1 2.133 2.1 5.594 0 7.723-1.054 1.068-2.434 1.603-3.806 1.603-1.38 0-2.752-.534-3.806-1.603-2.1-2.129-2.1-5.59 0-7.723l3.806-3.862zm-7.064 38.45l3.587-3.64 3.587 3.64c1.979 2.011 1.979 5.272 0 7.279-.993 1.007-2.294 1.511-3.587 1.511-1.301 0-2.594-.504-3.587-1.511-1.979-2.007-1.979-5.268 0-7.279zm7.501 17.791l3.637-3.69 3.637 3.69c2.006 2.038 2.006 5.345 0 7.38-1.007 1.021-2.325 1.531-3.637 1.531-1.319 0-2.63-.511-3.637-1.531-2.006-2.035-2.006-5.342 0-7.38zm7.288-24.868c-1.386 0-2.765-.537-3.823-1.61-2.109-2.139-2.109-5.616 0-7.759l3.823-3.879 3.823 3.879c2.109 2.143 2.109 5.62 0 7.759-1.058 1.073-2.444 1.61-3.823 1.61zm49.364-64.826c-1.175 1.192-2.714 1.788-4.246 1.788-1.54 0-3.07-.596-4.246-1.788-2.342-2.375-2.342-6.236 0-8.616l4.246-4.308 4.246 4.308c2.343 2.38 2.343 6.241 0 8.616zm4.757 7.749l4.13 4.19c2.278 2.315 2.278 6.07 0 8.381-1.143 1.16-2.641 1.739-4.13 1.739-1.497 0-2.987-.58-4.13-1.739-2.279-2.311-2.279-6.066 0-8.381l4.13-4.19zm-15.875 8.261c-1.114 1.13-2.573 1.695-4.024 1.695-1.459 0-2.911-.565-4.024-1.695-2.221-2.251-2.221-5.911 0-8.167l4.024-4.083 4.024 4.083c2.22 2.256 2.22 5.915 0 8.167zm-9.769-19.162c-1.111 1.127-2.566 1.69-4.014 1.69-1.456 0-2.903-.563-4.014-1.69-2.214-2.246-2.214-5.896 0-8.146l4.014-4.073 4.014 4.073c2.214 2.25 2.214 5.9 0 8.146zm-10.523 16.357c-1.06 1.075-2.449 1.613-3.831 1.613-1.389 0-2.771-.538-3.831-1.613-2.114-2.144-2.114-5.627 0-7.774l3.831-3.888 3.831 3.888c2.113 2.146 2.113 5.63 0 7.774zm-1.86 34.449c-1.102 1.118-2.546 1.677-3.982 1.677-1.444 0-2.88-.559-3.982-1.677-2.197-2.228-2.197-5.849 0-8.08l3.982-4.04 3.982 4.04c2.197 2.232 2.197 5.853 0 8.08zm-8.083-18.836c-1.043 1.058-2.409 1.586-3.767 1.586-1.366 0-2.724-.529-3.767-1.586-2.078-2.107-2.078-5.533 0-7.644l3.767-3.822 3.767 3.822c2.078 2.111 2.078 5.536 0 7.644zm-3.784 44.762l3.772-3.827 3.772 3.827c2.081 2.114 2.081 5.544 0 7.654-1.044 1.059-2.412 1.589-3.772 1.589-1.368 0-2.728-.53-3.772-1.589-2.08-2.11-2.08-5.539 0-7.654zm6.41 19.538l3.779-3.833 3.779 3.833c2.084 2.118 2.084 5.555 0 7.668-1.046 1.061-2.416 1.591-3.779 1.591-1.37 0-2.733-.53-3.779-1.591-2.084-2.114-2.084-5.55 0-7.668zm5.757-26.741c-2.185-2.215-2.185-5.815 0-8.035l3.959-4.018 3.959 4.018c2.185 2.219 2.185 5.82 0 8.035-1.096 1.112-2.532 1.668-3.959 1.668-1.435 0-2.863-.555-3.959-1.668zm8.067-32.627c-1.446 0-2.884-.56-3.987-1.679-2.2-2.23-2.2-5.856 0-8.091l3.987-4.046 3.987 4.046c2.2 2.235 2.2 5.861 0 8.091-1.103 1.119-2.549 1.679-3.987 1.679zm3.966 9.696l4.035-4.094 4.035 4.094c2.227 2.262 2.227 5.931 0 8.189-1.117 1.133-2.58 1.699-4.035 1.699-1.463 0-2.918-.566-4.035-1.699-2.226-2.258-2.226-5.927 0-8.189zm8.185 20.636l4.051-4.111 4.051 4.111c2.235 2.271 2.235 5.955 0 8.222-1.121 1.137-2.59 1.706-4.051 1.706-1.469 0-2.93-.569-4.051-1.706-2.236-2.266-2.236-5.951 0-8.222zm8.056-26.01c-1.464 0-2.92-.567-4.039-1.701-2.228-2.259-2.228-5.932 0-8.195l4.039-4.098 4.039 4.098c2.228 2.263 2.228 5.936 0 8.195-1.119 1.134-2.582 1.701-4.039 1.701zm3.637 10.164l4.162-4.222 4.161 4.222c2.296 2.332 2.296 6.117 0 8.445-1.151 1.168-2.66 1.752-4.161 1.752-1.509 0-3.01-.584-4.162-1.752-2.295-2.328-2.295-6.113 0-8.445zm6.751 21.595l4.193-4.255 4.193 4.255c2.313 2.35 2.313 6.163 0 8.509-1.161 1.178-2.681 1.766-4.193 1.766-1.521 0-3.032-.588-4.193-1.766-2.314-2.345-2.314-6.159 0-8.509zm10.079-26.716c-1.554 0-3.1-.602-4.286-1.805-2.364-2.398-2.364-6.295 0-8.697l4.286-4.349 4.286 4.349c2.364 2.402 2.364 6.299 0 8.697-1.187 1.203-2.74 1.805-4.286 1.805zm5.934-17.991c-2.574-2.611-2.574-6.854 0-9.47l4.667-4.735 4.667 4.735c2.574 2.616 2.574 6.859 0 9.47-1.292 1.31-2.984 1.965-4.667 1.965-1.692 0-3.375-.655-4.667-1.965zm9.821 12.493l4.626-4.694 4.626 4.694c2.553 2.593 2.553 6.799 0 9.388-1.28 1.298-2.958 1.948-4.626 1.948-1.678 0-3.346-.649-4.626-1.948-2.553-2.589-2.553-6.795 0-9.388zm14.026-27.382c-1.407 1.427-3.25 2.14-5.083 2.14-1.843 0-3.676-.713-5.083-2.14-2.804-2.844-2.804-7.466 0-10.314l5.083-5.157 5.083 5.157c2.804 2.848 2.804 7.471 0 10.314zm3.904 6.22l4.981 5.055c2.749 2.792 2.749 7.322 0 10.109-1.379 1.398-3.185 2.098-4.981 2.098-1.807 0-3.603-.699-4.981-2.098-2.749-2.787-2.749-7.317 0-10.109l4.981-5.055zm-9.796 40.751l4.573-4.64 4.573 4.64c2.522 2.563 2.522 6.722 0 9.28-1.266 1.283-2.924 1.926-4.573 1.926-1.658 0-3.308-.643-4.573-1.926-2.522-2.558-2.522-6.717 0-9.28zm15.974-5.097c-2.764-2.802-2.764-7.356 0-10.163l5.008-5.082 5.008 5.082c2.764 2.807 2.764 7.361 0 10.163-1.386 1.406-3.202 2.109-5.008 2.109-1.816 0-3.622-.703-5.008-2.109zm8.666-32.538c-1.946 0-3.883-.753-5.369-2.26-2.962-3.004-2.962-7.886 0-10.895l5.369-5.447 5.369 5.447c2.962 3.009 2.962 7.891 0 10.895-1.486 1.507-3.432 2.26-5.369 2.26zm5.973 6.207l5.339-5.417 5.339 5.417c2.946 2.993 2.946 7.848 0 10.835-1.478 1.499-3.413 2.248-5.339 2.248-1.936 0-3.861-.749-5.339-2.248-2.947-2.987-2.947-7.842 0-10.835zm.588-49.696c-1.462 1.482-3.377 2.224-5.281 2.224-1.915 0-3.819-.741-5.281-2.224-2.913-2.954-2.913-7.756 0-10.716l5.281-5.358 5.281 5.358c2.913 2.96 2.913 7.762 0 10.716zm-9.98 8.428c2.941 2.988 2.941 7.837 0 10.82-1.476 1.497-3.409 2.245-5.332 2.245-1.934 0-3.856-.748-5.332-2.245-2.941-2.983-2.941-7.832 0-10.82l5.332-5.41 5.332 5.41zm-11.88-11.903c-1.392 1.411-3.215 2.117-5.027 2.117-1.823 0-3.636-.706-5.027-2.117-2.773-2.812-2.773-7.384 0-10.202l5.027-5.101 5.027 5.101c2.774 2.818 2.774 7.39 0 10.202zm-13.043 17.415c-1.376 1.395-3.178 2.092-4.97 2.092-1.802 0-3.594-.697-4.97-2.092-2.741-2.78-2.741-7.299 0-10.083l4.97-5.042 4.97 5.042c2.742 2.784 2.742 7.303 0 10.083zm-8.52-21.305c-1.316 1.335-3.04 2.002-4.755 2.002-1.724 0-3.438-.667-4.755-2.002-2.624-2.66-2.624-6.984 0-9.649l4.755-4.825 4.755 4.825c2.624 2.664 2.624 6.989 0 9.649zm-10.664 22.349l4.581 4.648c2.527 2.567 2.527 6.733 0 9.296-1.268 1.286-2.929 1.929-4.581 1.929-1.661 0-3.313-.643-4.581-1.929-2.527-2.563-2.527-6.729 0-9.296l4.581-4.648zm-3.596-6.106c-1.266 1.283-2.922 1.924-4.57 1.924-1.657 0-3.305-.642-4.57-1.924-2.521-2.557-2.521-6.712 0-9.273l4.57-4.637 4.57 4.637c2.521 2.561 2.521 6.717 0 9.273zm-8.895-19.224c-1.198 1.215-2.768 1.822-4.328 1.822-1.569 0-3.13-.607-4.328-1.822-2.388-2.421-2.388-6.357 0-8.783l4.328-4.392 4.328 4.392c2.387 2.426 2.387 6.362 0 8.783zm-7.957-20.33c-1.113 1.129-2.571 1.693-4.021 1.693-1.458 0-2.908-.564-4.021-1.693-2.218-2.25-2.218-5.906 0-8.159l4.021-4.08 4.021 4.08c2.219 2.253 2.219 5.91 0 8.159zm-9.692 22.869l4.188 4.249c2.311 2.347 2.311 6.155 0 8.498-1.159 1.176-2.677 1.763-4.188 1.763-1.519 0-3.029-.587-4.188-1.763-2.311-2.343-2.311-6.151 0-8.498l4.188-4.249zm-2.487-6.962c-1.101 1.117-2.543 1.675-3.978 1.675-1.442 0-2.876-.558-3.978-1.675-2.194-2.225-2.194-5.842 0-8.072l3.978-4.036 3.978 4.036c2.194 2.23 2.194 5.847 0 8.072zm-7.339-19.81c-1.022 1.037-2.362 1.556-3.695 1.556-1.34 0-2.672-.519-3.695-1.556-2.039-2.067-2.039-5.427 0-7.498l3.695-3.749 3.695 3.749c2.038 2.071 2.038 5.43 0 7.498zm-5.89 27.833c2.167 2.202 2.167 5.775 0 7.973-1.088 1.103-2.512 1.655-3.929 1.655-1.425 0-2.841-.552-3.929-1.655-2.167-2.198-2.167-5.771 0-7.973l3.929-3.987 3.929 3.987zm-5.781-12.167c-1.02 1.034-2.356 1.551-3.685 1.551-1.336 0-2.665-.517-3.685-1.551-2.033-2.062-2.033-5.413 0-7.479l3.685-3.739 3.685 3.739c2.034 2.066 2.034 5.417 0 7.479zm-5.288 28.891c2.092 2.125 2.092 5.573 0 7.694-1.049 1.064-2.424 1.596-3.792 1.596-1.375 0-2.742-.532-3.792-1.596-2.092-2.122-2.092-5.569 0-7.694l3.792-3.847 3.792 3.847zm-7.743-12.695c-1.015 1.029-2.344 1.543-3.666 1.543-1.329 0-2.651-.514-3.666-1.543-2.022-2.051-2.022-5.384 0-7.438l3.666-3.719 3.666 3.719c2.022 2.053 2.022 5.387 0 7.438zm-6.255 25.593l3.65 3.703c2.013 2.045 2.013 5.364 0 7.406-1.01 1.024-2.334 1.537-3.65 1.537-1.323 0-2.64-.512-3.65-1.537-2.013-2.042-2.013-5.361 0-7.406l3.65-3.703zm-4.362-9.473c-.986 1-2.277 1.5-3.562 1.5-1.292 0-2.576-.5-3.562-1.5-1.965-1.993-1.965-5.232 0-7.229l3.562-3.614 3.562 3.614c1.964 1.997 1.964 5.236 0 7.229zm-9.814 15.607c-.953.966-2.2 1.449-3.441 1.449-1.248 0-2.489-.483-3.441-1.449-1.898-1.925-1.898-5.055 0-6.983l3.441-3.492 3.441 3.492c1.898 1.928 1.898 5.057 0 6.983zm-12.627 4.671l3.393 3.442c1.871 1.901 1.871 4.986 0 6.884-.939.952-2.169 1.429-3.393 1.429-1.23 0-2.454-.477-3.393-1.429-1.871-1.898-1.871-4.983 0-6.884l3.393-3.442zm-8.771 40.099l3.512-3.563 3.512 3.563c1.938 1.968 1.938 5.162 0 7.126-.972.986-2.245 1.479-3.512 1.479-1.273 0-2.54-.493-3.512-1.479-1.937-1.964-1.937-5.158 0-7.126zm-1.934 22.181c-.911.924-2.105 1.386-3.292 1.386-1.194 0-2.381-.462-3.292-1.386-1.816-1.843-1.816-4.837 0-6.682l3.292-3.341 3.292 3.341c1.816 1.845 1.816 4.84 0 6.682zm6.2-70.463c-.895.908-2.067 1.362-3.234 1.362-1.172 0-2.339-.454-3.234-1.362-1.784-1.81-1.784-4.75 0-6.562l3.234-3.282 3.234 3.282c1.784 1.811 1.784 4.752 0 6.562zm-5.9 23.098l3.309 3.357c1.826 1.854 1.826 4.864 0 6.715-.916.929-2.116 1.393-3.309 1.393-1.2 0-2.393-.464-3.309-1.393-1.826-1.852-1.826-4.861 0-6.715l3.309-3.357zm-4.236-8.038c-.88.893-2.033 1.339-3.18 1.339-1.153 0-2.299-.446-3.18-1.339-1.754-1.779-1.754-4.67 0-6.452l3.18-3.227 3.18 3.227c1.754 1.782 1.754 4.673 0 6.452zm-6.54 21.528l3.365 3.414c1.856 1.886 1.856 4.946 0 6.828-.932.944-2.151 1.417-3.365 1.417-1.22 0-2.433-.472-3.365-1.417-1.856-1.882-1.856-4.942 0-6.828l3.365-3.414zm-8.042 40.204l3.123-3.169 3.123 3.169c1.723 1.751 1.723 4.591 0 6.338-.864.877-1.997 1.315-3.123 1.315-1.132 0-2.259-.438-3.123-1.315-1.723-1.748-1.723-4.588 0-6.338zm-2.501-15.483c-1.746-1.77-1.746-4.647 0-6.42l3.164-3.21 3.164 3.21c1.746 1.773 1.746 4.65 0 6.42-.875.888-2.022 1.332-3.164 1.332-1.147 0-2.288-.444-3.164-1.332zm6.325-31.103c-.858.87-1.982 1.305-3.1 1.305-1.124 0-2.242-.435-3.1-1.305-1.71-1.734-1.71-4.553 0-6.29l3.1-3.145 3.1 3.145c1.71 1.737 1.71 4.555 0 6.29zm-7.305-16.394c-.826.837-1.907 1.256-2.983 1.256-1.082 0-2.157-.418-2.983-1.256-1.646-1.669-1.646-4.381 0-6.053l2.983-3.026 2.983 3.026c1.645 1.671 1.645 4.384 0 6.053zm-6.091-16.558c-.775.786-1.789 1.178-2.798 1.178-1.015 0-2.023-.393-2.798-1.178-1.543-1.565-1.543-4.11 0-5.678l2.798-2.839 2.798 2.839c1.544 1.568 1.544 4.112 0 5.678zm-4.045 80.836l2.944 2.987c1.624 1.649 1.624 4.327 0 5.974-.815.827-1.882 1.24-2.944 1.24-1.067 0-2.129-.413-2.944-1.24-1.624-1.646-1.624-4.324 0-5.974l2.944-2.987zm-.959 23.463c-1.556-1.578-1.556-4.143 0-5.723l2.82-2.861 2.82 2.861c1.556 1.58 1.556 4.145 0 5.723-.78.792-1.803 1.188-2.82 1.188-1.022 0-2.039-.396-2.82-1.188zm6.538-30.96c-.824.836-1.904 1.254-2.979 1.254-1.08 0-2.154-.418-2.979-1.254-1.643-1.666-1.643-4.375 0-6.044l2.979-3.022 2.979 3.022c1.643 1.669 1.643 4.378 0 6.044zm.734-24.266c-.819.831-1.891 1.246-2.958 1.246-1.072 0-2.139-.415-2.958-1.246-1.632-1.655-1.632-4.345 0-6.002l2.958-3.001 2.958 3.001c1.632 1.657 1.632 4.347 0 6.002zm2.282 63.644l2.869-2.911 2.869 2.911c1.583 1.608 1.583 4.217 0 5.822-.794.805-1.834 1.208-2.869 1.208-1.04 0-2.075-.403-2.869-1.208-1.583-1.605-1.583-4.213 0-5.822zm4.293 29.265l2.673 2.713c1.475 1.498 1.475 3.929 0 5.425-.74.75-1.709 1.126-2.673 1.126-.969 0-1.933-.376-2.673-1.126-1.475-1.496-1.475-3.927 0-5.425l2.673-2.713zm3.483-39.707c-1.647-1.67-1.647-4.384 0-6.057l2.984-3.028 2.984 3.028c1.647 1.673 1.647 4.387 0 6.057-.826.838-1.908 1.257-2.984 1.257-1.081 0-2.158-.419-2.984-1.257zm2 26.83l2.88-2.922 2.88 2.922c1.589 1.614 1.589 4.233 0 5.844-.797.809-1.841 1.213-2.88 1.213-1.044 0-2.083-.404-2.88-1.213-1.588-1.611-1.588-4.23 0-5.844zm6.676-10.312c-1.688-1.712-1.688-4.495 0-6.211l3.061-3.105 3.061 3.105c1.688 1.716 1.688 4.499 0 6.211-.847.859-1.957 1.289-3.061 1.289-1.111 0-2.214-.429-3.061-1.289zm1.673 23.627l2.748-2.787 2.748 2.787c1.516 1.54 1.516 4.039 0 5.576-.76.771-1.757 1.157-2.748 1.157-.996 0-1.987-.386-2.748-1.157-1.517-1.537-1.517-4.036 0-5.576zm6.525-49.837c-1.151 0-2.296-.445-3.175-1.337-1.751-1.775-1.751-4.663 0-6.442l3.175-3.221 3.175 3.221c1.751 1.779 1.751 4.667 0 6.442-.879.892-2.03 1.337-3.175 1.337zm2.11 7.668l3.282-3.33 3.282 3.33c1.811 1.84 1.811 4.824 0 6.66-.909.922-2.099 1.383-3.282 1.383-1.19 0-2.374-.461-3.282-1.383-1.811-1.835-1.811-4.82 0-6.66zm.508 25.135l3.101-3.146 3.101 3.146c1.71 1.737 1.71 4.558 0 6.292-.858.87-1.983 1.306-3.101 1.306-1.125 0-2.243-.436-3.101-1.306-1.711-1.734-1.711-4.555 0-6.292zm6.394-46.251c-1.876-1.902-1.876-4.994 0-6.9l3.4-3.449 3.4 3.449c1.876 1.906 1.876 4.998 0 6.9-.941.955-2.174 1.432-3.4 1.432-1.232 0-2.458-.477-3.4-1.432zm5.817 32.06l3.276-3.324 3.276 3.324c1.807 1.836 1.807 4.814 0 6.647-.907.92-2.095 1.38-3.276 1.38-1.188 0-2.369-.46-3.276-1.38-1.808-1.833-1.808-4.811 0-6.647zm5.24 16.462l3.114-3.16 3.114 3.16c1.718 1.745 1.718 4.577 0 6.319-.862.874-1.991 1.312-3.114 1.312-1.129 0-2.252-.438-3.114-1.312-1.718-1.742-1.718-4.574 0-6.319zm7.155 16.21l3.003-3.048 3.003 3.048c1.657 1.683 1.657 4.413 0 6.094-.831.843-1.92 1.265-3.003 1.265-1.089 0-2.172-.422-3.003-1.265-1.657-1.681-1.657-4.412 0-6.094zm4.131-28.092c-1.93-1.957-1.93-5.139 0-7.1l3.499-3.55 3.499 3.55c1.93 1.961 1.93 5.143 0 7.1-.968.982-2.237 1.474-3.499 1.474-1.269-.001-2.53-.492-3.499-1.474zm5.678 11.186l3.261-3.309 3.261 3.309c1.799 1.827 1.799 4.793 0 6.617-.903.915-2.085 1.373-3.261 1.373-1.182 0-2.358-.458-3.261-1.373-1.799-1.824-1.799-4.79 0-6.617zm12.499-7.217c-1.995-2.023-1.995-5.312 0-7.339l3.617-3.67 3.617 3.67c1.995 2.026 1.995 5.315 0 7.339-1.001 1.015-2.312 1.522-3.617 1.522-1.312 0-2.616-.508-3.617-1.522zm5.854 10.485l3.468-3.519 3.468 3.519c1.913 1.943 1.913 5.097 0 7.037-.96.973-2.217 1.46-3.468 1.46-1.257 0-2.508-.487-3.468-1.46-1.913-1.94-1.913-5.094 0-7.037zm9.516-51.399l3.911-3.968 3.911 3.968c2.158 2.192 2.158 5.748 0 7.937-1.083 1.098-2.5 1.646-3.911 1.646-1.418 0-2.828-.549-3.911-1.646-2.157-2.188-2.157-5.744 0-7.937zm5.326 18.806l3.838-3.895 3.838 3.895c2.118 2.151 2.118 5.643 0 7.79-1.062 1.077-2.454 1.616-3.838 1.616-1.392 0-2.776-.539-3.838-1.616-2.117-2.147-2.117-5.638 0-7.79zm8.1 30.699l3.538 3.589c1.952 1.983 1.952 5.2 0 7.18-.979.993-2.262 1.489-3.538 1.489-1.283 0-2.559-.496-3.538-1.489-1.952-1.979-1.952-5.196 0-7.18l3.538-3.589zm6.634-41.828l3.966-4.024 3.966 4.024c2.188 2.223 2.188 5.829 0 8.048-1.098 1.113-2.536 1.67-3.966 1.67-1.438 0-2.868-.557-3.966-1.67-2.188-2.219-2.188-5.825 0-8.048zm1.784 21.654l3.846-3.902 3.846 3.902c2.122 2.155 2.122 5.653 0 7.805-1.064 1.079-2.459 1.619-3.846 1.619-1.395 0-2.782-.54-3.846-1.619-2.122-2.152-2.122-5.65 0-7.805zm4.702 19.274l3.616-3.668 3.616 3.668c1.994 2.026 1.994 5.314 0 7.338-1.001 1.015-2.312 1.521-3.616 1.521-1.311 0-2.615-.507-3.616-1.521-1.994-2.024-1.994-5.312 0-7.338zm6.065 18.917l3.359-3.408 3.359 3.408c1.853 1.883 1.853 4.938 0 6.816-.93.943-2.148 1.414-3.359 1.414-1.218 0-2.43-.471-3.359-1.414-1.852-1.879-1.852-4.933 0-6.816zm5.369-54.428l4.024-4.083 4.024 4.083c2.221 2.256 2.221 5.916 0 8.168-1.113 1.13-2.573 1.694-4.024 1.694-1.459 0-2.911-.564-4.024-1.694-2.22-2.252-2.22-5.912 0-8.168zm6.923-27.916c-2.423-2.458-2.423-6.452 0-8.913l4.393-4.457 4.393 4.457c2.423 2.461 2.423 6.456 0 8.913-1.216 1.233-2.809 1.849-4.393 1.849-1.593 0-3.177-.616-4.393-1.849zm6.074 12.322l4.304-4.367 4.304 4.367c2.375 2.412 2.375 6.326 0 8.734-1.191 1.208-2.752 1.812-4.304 1.812-1.561 0-3.112-.604-4.304-1.812-2.375-2.408-2.375-6.322 0-8.734zm1.735 54.882c1.979 2.009 1.979 5.27 0 7.275-.992 1.006-2.292 1.509-3.585 1.509-1.3 0-2.593-.503-3.585-1.509-1.979-2.006-1.979-5.267 0-7.275l3.585-3.638 3.585 3.638zm-2.609 18.55l3.296-3.345 3.296 3.345c1.818 1.848 1.818 4.845 0 6.688-.912.926-2.107 1.389-3.296 1.389-1.195 0-2.384-.463-3.296-1.389-1.818-1.843-1.818-4.84 0-6.688zm5.946-44.672c-2.271-2.304-2.271-6.048 0-8.355l4.117-4.178 4.117 4.178c2.271 2.308 2.271 6.052 0 8.355-1.14 1.156-2.632 1.734-4.117 1.734-1.493.001-2.978-.578-4.117-1.734zm3.702 10.819l3.952-4.01 3.952 4.01c2.18 2.215 2.18 5.809 0 8.02-1.095 1.109-2.527 1.664-3.952 1.664-1.433 0-2.857-.555-3.952-1.664-2.18-2.212-2.18-5.806 0-8.02zm1.282 53.489l3.045-3.09 3.045 3.09c1.68 1.706 1.68 4.476 0 6.179-.843.854-1.947 1.282-3.045 1.282-1.104 0-2.202-.428-3.045-1.282-1.68-1.704-1.68-4.473 0-6.179zm5.898-8.988c-1.821-1.847-1.821-4.849 0-6.699l3.301-3.349 3.301 3.349c1.821 1.851 1.821 4.853 0 6.699-.913.927-2.11 1.39-3.301 1.39-1.197-.001-2.387-.464-3.301-1.39zm2.916 23.016l2.874-2.916 2.874 2.916c1.586 1.611 1.586 4.225 0 5.833-.795.807-1.838 1.21-2.874 1.21-1.042 0-2.079-.403-2.874-1.21-1.586-1.608-1.586-4.221 0-5.833zm4.836-73.759c-2.292-2.324-2.292-6.103 0-8.431l4.154-4.216 4.154 4.216c2.292 2.328 2.292 6.106 0 8.431-1.149 1.167-2.656 1.75-4.154 1.75-1.506 0-3.004-.583-4.154-1.75zm10.747-43.721l4.702-4.771 4.702 4.771c2.594 2.635 2.594 6.911 0 9.542-1.302 1.319-3.007 1.979-4.702 1.979-1.705 0-3.4-.66-4.702-1.979-2.593-2.631-2.593-6.908 0-9.542zm5.489 23.219l4.354-4.418 4.354 4.418c2.402 2.439 2.402 6.399 0 8.835-1.205 1.222-2.783 1.833-4.354 1.833-1.579 0-3.148-.611-4.354-1.833-2.403-2.435-2.403-6.395 0-8.835zm10.982-37.774l4.898-4.97 4.898 4.97c2.702 2.745 2.702 7.2 0 9.94-1.355 1.375-3.132 2.062-4.898 2.062-1.776 0-3.543-.688-4.898-2.062-2.702-2.74-2.702-7.195 0-9.94zm4.64 22.991l4.506-4.572 4.506 4.572c2.486 2.525 2.486 6.623 0 9.144-1.247 1.265-2.881 1.897-4.506 1.897-1.634 0-3.259-.633-4.506-1.897-2.487-2.521-2.487-6.618 0-9.144zm2.894 23.969l4.13-4.19 4.13 4.19c2.277 2.313 2.277 6.069 0 8.379-1.144 1.159-2.641 1.739-4.13 1.739-1.497 0-2.986-.58-4.13-1.739-2.277-2.31-2.277-6.066 0-8.379zm4.126 20.365l3.786-3.841 3.786 3.841c2.088 2.122 2.088 5.564 0 7.683-1.048 1.062-2.421 1.594-3.786 1.594-1.373 0-2.738-.531-3.786-1.594-2.088-2.118-2.088-5.561 0-7.683zm8.141-46.72c-2.549-2.584-2.549-6.785 0-9.374l4.619-4.687 4.619 4.687c2.549 2.589 2.549 6.79 0 9.374-1.278 1.297-2.953 1.945-4.619 1.945-1.675.001-3.341-.648-4.619-1.945zm11.505-65.576l5.314-5.393 5.314 5.393c2.933 2.979 2.933 7.812 0 10.785-1.471 1.492-3.397 2.238-5.314 2.238-1.927 0-3.844-.746-5.314-2.238-2.933-2.973-2.933-7.806 0-10.785zm2.435 21.276l5.073-5.147 5.073 5.147c2.799 2.843 2.799 7.457 0 10.294-1.404 1.424-3.244 2.136-5.073 2.136-1.84 0-3.669-.712-5.073-2.136-2.798-2.838-2.798-7.451 0-10.294zm1.727 23.267l4.69-4.759 4.69 4.759c2.587 2.628 2.587 6.894 0 9.517-1.299 1.317-2.999 1.975-4.69 1.975-1.7 0-3.392-.658-4.69-1.975-2.587-2.624-2.587-6.889 0-9.517zm16.571-69.878c-1.42 1.44-3.281 2.161-5.132 2.161-1.86 0-3.712-.72-5.132-2.161-2.832-2.871-2.832-7.538 0-10.415l5.132-5.207 5.132 5.207c2.832 2.877 2.832 7.544 0 10.415zm-4.39-25.134c-1.354 1.373-3.126 2.059-4.89 2.059-1.772 0-3.536-.686-4.89-2.059-2.697-2.736-2.697-7.182 0-9.923l4.89-4.961 4.89 4.961c2.697 2.74 2.697 7.187 0 9.923zm-5.871-22.371c-1.242 1.26-2.869 1.89-4.487 1.89-1.627 0-3.245-.63-4.487-1.89-2.476-2.51-2.476-6.591 0-9.106l4.487-4.553 4.487 4.553c2.476 2.514 2.476 6.595 0 9.106zm-9.09 26.128c2.964 3.011 2.964 7.896 0 10.901-1.487 1.508-3.435 2.262-5.372 2.262-1.948 0-3.885-.754-5.372-2.262-2.964-3.005-2.964-7.891 0-10.901l5.372-5.451 5.372 5.451zm-6.652-12.866c-1.349 1.367-3.114 2.051-4.871 2.051-1.766 0-3.522-.684-4.871-2.051-2.687-2.725-2.687-7.154 0-9.884l4.871-4.942 4.871 4.942c2.687 2.73 2.687 7.159 0 9.884zm-11.35-18.526c-1.222 1.239-2.821 1.858-4.413 1.858-1.6 0-3.191-.619-4.413-1.858-2.435-2.469-2.435-6.482 0-8.955l4.413-4.477 4.413 4.477c2.434 2.473 2.434 6.486 0 8.955zm-10.414 17.02l5.124 5.199c2.827 2.872 2.827 7.531 0 10.398-1.418 1.438-3.276 2.157-5.124 2.157-1.857 0-3.706-.719-5.124-2.157-2.827-2.867-2.827-7.526 0-10.398l5.124-5.199zm-5.722-4.045c-1.279 1.297-2.955 1.946-4.622 1.946-1.676 0-3.343-.649-4.622-1.946-2.55-2.585-2.55-6.789 0-9.379l4.622-4.689 4.622 4.689c2.55 2.59 2.55 6.793 0 9.379zm-5.839-20.419c-1.159 1.175-2.677 1.763-4.187 1.763-1.518 0-3.027-.588-4.187-1.763-2.309-2.342-2.309-6.148 0-8.495l4.187-4.248 4.187 4.248c2.309 2.347 2.309 6.154 0 8.495zm-7.764 24.303c2.665 2.708 2.665 7.102 0 9.805-1.338 1.356-3.09 2.035-4.832 2.035-1.752 0-3.494-.678-4.832-2.035-2.665-2.703-2.665-7.097 0-9.805l4.832-4.902 4.832 4.902zm-8.554-11.784c-1.21 1.227-2.794 1.84-4.37 1.84-1.584 0-3.16-.613-4.37-1.84-2.41-2.445-2.41-6.418 0-8.867l4.37-4.434 4.37 4.434c2.41 2.449 2.41 6.422 0 8.867zm-12.116 18.104c-1.282 1.301-2.963 1.951-4.634 1.951-1.68 0-3.352-.65-4.634-1.951-2.557-2.593-2.557-6.807 0-9.404l4.634-4.702 4.634 4.702c2.557 2.597 2.557 6.811 0 9.404zm-12.631-16.597c-1.163 1.18-2.688 1.77-4.203 1.77-1.523 0-3.04-.59-4.203-1.77-2.318-2.351-2.318-6.173 0-8.529l4.203-4.264 4.203 4.264c2.318 2.356 2.318 6.178 0 8.529zm-10.911 16.065c-1.204 1.221-2.782 1.832-4.352 1.832-1.578 0-3.147-.611-4.352-1.832-2.4-2.435-2.4-6.392 0-8.831l4.352-4.415 4.352 4.415c2.4 2.439 2.4 6.396 0 8.831zm-9.8-20.419c-1.089 1.104-2.515 1.656-3.933 1.656-1.426 0-2.844-.552-3.933-1.656-2.17-2.2-2.17-5.777 0-7.981l3.933-3.99 3.933 3.99c2.17 2.204 2.17 5.781 0 7.981zm-9.381-18.805c-.979.993-2.263 1.49-3.539 1.49-1.283 0-2.559-.497-3.539-1.49-1.952-1.98-1.952-5.198 0-7.181l3.539-3.59 3.539 3.59c1.952 1.983 1.952 5.201 0 7.181zm-8.164-15.943c-.888.9-2.051 1.351-3.208 1.351-1.163 0-2.32-.451-3.208-1.351-1.77-1.795-1.77-4.712 0-6.51l3.208-3.255 3.208 3.255c1.77 1.798 1.77 4.715 0 6.51zm-6.144 20.367l3.662 3.715c2.02 2.052 2.02 5.382 0 7.43-1.014 1.028-2.341 1.542-3.662 1.542-1.328 0-2.648-.514-3.662-1.542-2.02-2.048-2.02-5.378 0-7.43l3.662-3.715zm-4.99-6.7c-.918.932-2.122 1.397-3.319 1.397-1.203 0-2.4-.466-3.319-1.397-1.831-1.857-1.831-4.875 0-6.735l3.319-3.368 3.319 3.368c1.831 1.86 1.831 4.878 0 6.735zm-3.533-24.725c-.785.796-1.813 1.194-2.835 1.194-1.028 0-2.05-.398-2.835-1.194-1.564-1.586-1.564-4.165 0-5.753l2.835-2.877 2.835 2.877c1.564 1.589 1.564 4.167 0 5.753zm-7.039 38.901c-.913.926-2.108 1.388-3.297 1.388-1.195 0-2.384-.462-3.297-1.388-1.819-1.844-1.819-4.842 0-6.69l3.297-3.345 3.297 3.345c1.819 1.847 1.819 4.845 0 6.69zm-2.29-26.238c-.831.842-1.918 1.263-3 1.263-1.087 0-2.169-.421-3-1.263-1.654-1.678-1.654-4.405 0-6.086l3-3.043 3 3.043c1.654 1.681 1.654 4.409 0 6.086zm-7.383 42.146c-.949.963-2.193 1.444-3.43 1.444-1.244 0-2.481-.481-3.43-1.444-1.893-1.919-1.893-5.039 0-6.961l3.43-3.48 3.43 3.48c1.892 1.923 1.892 5.042 0 6.961zm-10.318-14.734c-.839.851-1.938 1.276-3.03 1.276-1.099 0-2.191-.425-3.03-1.276-1.671-1.695-1.671-4.451 0-6.149l3.03-3.074 3.03 3.074c1.671 1.699 1.671 4.454 0 6.149zm-4.676 20.522l3.381 3.431c1.866 1.895 1.866 4.97 0 6.862-.936.949-2.162 1.424-3.381 1.424-1.226 0-2.445-.475-3.381-1.424-1.866-1.892-1.866-4.967 0-6.862l3.381-3.431zm-4.77-4.988c-.875.888-2.022 1.332-3.163 1.332-1.147 0-2.288-.444-3.163-1.332-1.745-1.77-1.745-4.646 0-6.419l3.163-3.21 3.163 3.21c1.745 1.773 1.745 4.649 0 6.419zm-7.701 20.738l3.38 3.429c1.864 1.894 1.864 4.968 0 6.858-.936.949-2.161 1.423-3.38 1.423-1.226 0-2.444-.475-3.38-1.423-1.864-1.891-1.864-4.964 0-6.858l3.38-3.429zm-1.562-35.152c-.79.801-1.824 1.201-2.853 1.201-1.035 0-2.063-.4-2.853-1.201-1.574-1.596-1.574-4.191 0-5.79l2.853-2.895 2.853 2.895c1.574 1.599 1.574 4.193 0 5.79zm-3.217-24.242c-.688.698-1.59 1.047-2.487 1.047-.902 0-1.799-.349-2.487-1.047-1.372-1.391-1.372-3.653 0-5.046l2.487-2.523 2.487 2.523c1.372 1.393 1.372 3.655 0 5.046zm-6.623 38.328c-.811.823-1.874 1.234-2.931 1.234-1.063 0-2.12-.411-2.931-1.234-1.617-1.64-1.617-4.306 0-5.948l2.931-2.974 2.931 2.974c1.617 1.642 1.617 4.308 0 5.948zm-6.58 20.113l3.135 3.181c1.729 1.756 1.729 4.607 0 6.361-.868.88-2.004 1.32-3.135 1.32-1.137 0-2.267-.44-3.135-1.32-1.729-1.754-1.729-4.604 0-6.361l3.135-3.181zm-3.87-6.881c-.812.825-1.877 1.237-2.937 1.237-1.065 0-2.124-.412-2.937-1.237-1.62-1.643-1.62-4.313 0-5.959l2.937-2.98 2.937 2.98c1.62 1.646 1.62 4.317 0 5.959zm-5.433 23.562l3.129 3.175c1.726 1.753 1.726 4.599 0 6.35-.866.878-2.001 1.318-3.129 1.318-1.135 0-2.263-.439-3.129-1.318-1.726-1.75-1.726-4.596 0-6.35l3.129-3.175zm-4.106-6.721c-.801.812-1.85 1.218-2.894 1.218-1.049 0-2.093-.406-2.894-1.218-1.597-1.619-1.597-4.25 0-5.872l2.894-2.936 2.894 2.936c1.597 1.621 1.597 4.253 0 5.872zm-5.643 22.46l3.036 3.08c1.675 1.701 1.675 4.462 0 6.16-.84.853-1.941 1.278-3.036 1.278-1.101 0-2.195-.426-3.036-1.278-1.675-1.698-1.675-4.459 0-6.16l3.036-3.08zm-4.171-7.368c-.781.792-1.804 1.188-2.821 1.188-1.023 0-2.04-.396-2.821-1.188-1.557-1.578-1.557-4.143 0-5.724l2.821-2.862 2.821 2.862c1.557 1.58 1.557 4.145 0 5.724zm-6.918-15.624c-.728.738-1.681 1.107-2.629 1.107-.954 0-1.902-.369-2.629-1.107-1.451-1.471-1.451-3.862 0-5.336l2.629-2.668 2.629 2.668c1.45 1.474 1.45 3.865 0 5.336zm-4.206-29.83c-.675.684-1.559 1.026-2.438 1.026-.884 0-1.763-.342-2.438-1.026-1.345-1.364-1.345-3.581 0-4.947l2.438-2.474 2.438 2.474c1.346 1.366 1.346 3.584 0 4.947zm-3.743 6.37l2.564 2.603c1.415 1.437 1.415 3.77 0 5.204-.709.72-1.64 1.08-2.564 1.08-.93 0-1.855-.36-2.564-1.08-1.415-1.435-1.415-3.767 0-5.204l2.564-2.603zm-1.175 32.365c1.438 1.461 1.438 3.833 0 5.292-.722.732-1.668 1.098-2.608 1.098-.946 0-1.886-.366-2.608-1.098-1.438-1.459-1.438-3.831 0-5.292l2.608-2.646 2.608 2.646zm-6.189-10.721c-.68.689-1.57 1.034-2.456 1.034-.891 0-1.776-.345-2.456-1.034-1.355-1.374-1.355-3.607 0-4.984l2.456-2.492 2.456 2.492c1.355 1.377 1.355 3.61 0 4.984zm-4.434-14.724c-.66.669-1.524 1.003-2.384 1.003-.864 0-1.724-.334-2.384-1.003-1.315-1.334-1.315-3.502 0-4.838l2.384-2.418 2.384 2.418c1.315 1.336 1.315 3.504 0 4.838zm-4.208 23.814c1.337 1.359 1.337 3.563 0 4.919-.671.681-1.55 1.021-2.424 1.021-.879 0-1.753-.34-2.424-1.021-1.337-1.356-1.337-3.56 0-4.919l2.424-2.459 2.424 2.459zm-6.053-10.023c-.64.649-1.479.974-2.313.974-.838 0-1.673-.325-2.313-.974-1.276-1.294-1.276-3.397 0-4.693l2.313-2.347 2.313 2.347c1.276 1.296 1.276 3.399 0 4.693zm-5.517-13.298c-.62.629-1.433.944-2.241.944-.812 0-1.621-.315-2.241-.944-1.236-1.253-1.236-3.291 0-4.547l2.241-2.274 2.241 2.274c1.236 1.256 1.236 3.293 0 4.547zm-4.951 20.65l2.292 2.326c1.265 1.285 1.265 3.369 0 4.652-.635.644-1.466.965-2.292.965-.831 0-1.658-.322-2.292-.965-1.265-1.283-1.265-3.367 0-4.652l2.292-2.326zm-3.949-6.931c-.616.625-1.423.937-2.226.937-.807 0-1.61-.312-2.226-.937-1.228-1.246-1.228-3.27 0-4.518l2.226-2.258 2.226 2.258c1.228 1.248 1.228 3.273 0 4.518zm-4.212 21.73l2.297 2.331c1.267 1.287 1.267 3.376 0 4.662-.636.645-1.469.967-2.297.967-.833 0-1.661-.323-2.297-.967-1.267-1.285-1.267-3.375 0-4.662l2.297-2.331zm-4.03-8.013c-.616.625-1.422.937-2.224.937-.807 0-1.608-.312-2.224-.937-1.227-1.244-1.227-3.267 0-4.513l2.224-2.256 2.224 2.256c1.227 1.247 1.227 3.269 0 4.513zm-1.594 152.19l2.598-2.636 2.598 2.636c1.434 1.456 1.434 3.819 0 5.272-.719.729-1.661 1.094-2.598 1.094-.942 0-1.879-.364-2.598-1.094-1.433-1.453-1.433-3.816 0-5.272zm4.51-11.281c-1.464-1.485-1.464-3.898 0-5.386l2.654-2.692 2.654 2.692c1.464 1.487 1.464 3.9 0 5.386-.734.745-1.697 1.117-2.654 1.117-.963 0-1.92-.372-2.654-1.117zm4.325 26.253l2.615-2.654 2.615 2.654c1.443 1.465 1.443 3.844 0 5.307-.724.734-1.672 1.102-2.615 1.102-.948 0-1.891-.367-2.615-1.102-1.443-1.463-1.443-3.842 0-5.307zm6.114-9.719c-1.461-1.481-1.461-3.89 0-5.374l2.648-2.687 2.648 2.687c1.461 1.484 1.461 3.893 0 5.374-.733.743-1.693 1.115-2.648 1.115-.96 0-1.915-.372-2.648-1.115zm4.706-16.179c-1.486-1.507-1.486-3.957 0-5.468l2.694-2.733 2.694 2.733c1.486 1.511 1.486 3.961 0 5.468-.746.757-1.723 1.135-2.694 1.135-.977 0-1.948-.378-2.694-1.135zm5.016 23.608l2.64-2.679 2.64 2.679c1.457 1.479 1.457 3.881 0 5.358-.73.741-1.688 1.111-2.64 1.111-.958 0-1.91-.37-2.64-1.111-1.457-1.477-1.457-3.879 0-5.358zm5.565-12.328c-1.49-1.512-1.49-3.968 0-5.482l2.702-2.741 2.702 2.741c1.49 1.515 1.49 3.971 0 5.482-.748.758-1.728 1.138-2.702 1.138-.98-.001-1.954-.381-2.702-1.138zm6.26-23.229c-.757.768-1.748 1.151-2.734 1.151-.991 0-1.977-.384-2.734-1.151-1.508-1.529-1.508-4.016 0-5.547l2.734-2.774 2.734 2.774c1.508 1.531 1.508 4.018 0 5.547zm.67-49.359c-1.514-1.535-1.514-4.031 0-5.568l2.744-2.785 2.744 2.785c1.514 1.538 1.514 4.033 0 5.568-.759.771-1.754 1.156-2.744 1.156-.995-.001-1.984-.386-2.744-1.156zm1.932 112.386l2.625-2.663 2.625 2.663c1.448 1.471 1.448 3.857 0 5.325-.727.737-1.678 1.105-2.625 1.105-.952 0-1.898-.368-2.625-1.105-1.447-1.467-1.447-3.854 0-5.325zm4.765-14.751c-1.456-1.477-1.456-3.876 0-5.355l2.639-2.678 2.639 2.678c1.456 1.479 1.456 3.879 0 5.355-.73.741-1.688 1.111-2.639 1.111-.957.001-1.908-.369-2.639-1.111zm6.773-29.44l2.742-2.782 2.742 2.782c1.513 1.536 1.513 4.029 0 5.563-.759.77-1.753 1.154-2.742 1.154-.994 0-1.983-.385-2.742-1.154-1.513-1.534-1.513-4.027 0-5.563zm1.146 52.957l2.644-2.683 2.644 2.683c1.458 1.481 1.458 3.886 0 5.364-.732.742-1.69 1.113-2.644 1.113-.958 0-1.912-.371-2.644-1.113-1.459-1.478-1.459-3.883 0-5.364zm4.825-12.102c-.957 0-1.908-.37-2.639-1.11-1.456-1.477-1.456-3.876 0-5.355l2.639-2.677 2.639 2.677c1.456 1.479 1.456 3.879 0 5.355-.731.739-1.687 1.11-2.639 1.11zm3.395 24.855l2.604-2.642 2.604 2.642c1.436 1.459 1.436 3.827 0 5.284-.721.73-1.665 1.096-2.604 1.096-.944 0-1.883-.365-2.604-1.096-1.436-1.457-1.436-3.825 0-5.284zm4.889-15.218c-1.451-1.471-1.451-3.862 0-5.336l2.63-2.668 2.63 2.668c1.451 1.474 1.451 3.865 0 5.336-.728.738-1.682 1.107-2.63 1.107-.954.001-1.902-.369-2.63-1.107zm3.967-16.679c-1.468-1.488-1.468-3.907 0-5.397l2.66-2.699 2.66 2.699c1.468 1.49 1.468 3.909 0 5.397-.736.747-1.701 1.12-2.66 1.12-.964 0-1.924-.373-2.66-1.12zm4.007 25.46l2.594-2.632 2.594 2.632c1.431 1.454 1.431 3.812 0 5.264-.718.729-1.658 1.093-2.594 1.093-.94 0-1.876-.364-2.594-1.093-1.432-1.451-1.432-3.809 0-5.264zm6.29 14.883l2.576-2.613 2.576 2.613c1.421 1.443 1.421 3.785 0 5.227-.713.723-1.647 1.084-2.576 1.084-.934 0-1.863-.361-2.576-1.084-1.421-1.442-1.421-3.783 0-5.227zm5.545-25.949c-.733.743-1.693 1.115-2.647 1.115-.96 0-1.915-.372-2.647-1.115-1.46-1.48-1.46-3.889 0-5.372l2.647-2.687 2.647 2.687c1.461 1.483 1.461 3.892 0 5.372zm.644-14.707c-1.497-1.519-1.497-3.986 0-5.508l2.714-2.754 2.714 2.754c1.497 1.521 1.497 3.989 0 5.508-.751.762-1.735 1.143-2.714 1.143-.984 0-1.963-.381-2.714-1.143zm1.789 24.989l2.613-2.65 2.613 2.65c1.441 1.465 1.441 3.841 0 5.303-.723.733-1.67 1.1-2.613 1.1-.947 0-1.89-.366-2.613-1.1-1.442-1.462-1.442-3.838 0-5.303zm3.885-40.127c-1.579-1.601-1.579-4.203 0-5.808l2.862-2.903 2.862 2.903c1.579 1.604 1.579 4.207 0 5.808-.792.804-1.83 1.205-2.862 1.205-1.038 0-2.07-.401-2.862-1.205zm4.096 26.566l2.668-2.707 2.668 2.707c1.472 1.495 1.472 3.921 0 5.414-.738.749-1.706 1.123-2.668 1.123-.967 0-1.93-.374-2.668-1.123-1.472-1.493-1.472-3.919 0-5.414zm.245 27.19l2.581-2.619 2.581 2.619c1.424 1.446 1.424 3.793 0 5.237-.714.725-1.65 1.087-2.581 1.087-.936 0-1.867-.362-2.581-1.087-1.424-1.444-1.424-3.791 0-5.237zm6.289-41.71l2.778-2.819 2.778 2.819c1.533 1.557 1.533 4.083 0 5.638-.769.78-1.776 1.17-2.778 1.17-1.007 0-2.009-.39-2.778-1.17-1.533-1.555-1.533-4.081 0-5.638zm2.098 28.844l2.603-2.641 2.603 2.641c1.436 1.459 1.436 3.825 0 5.281-.721.73-1.664 1.096-2.603 1.096-.943 0-1.882-.365-2.603-1.096-1.436-1.456-1.436-3.822 0-5.281zm3.114 32.957l2.509-2.546 2.509 2.546c1.384 1.406 1.384 3.688 0 5.091-.694.704-1.604 1.057-2.509 1.057-.91 0-1.814-.353-2.509-1.057-1.384-1.404-1.384-3.685 0-5.091zm6.01-9.687c-.926 0-1.847-.358-2.554-1.075-1.409-1.429-1.409-3.752 0-5.183l2.554-2.592 2.554 2.592c1.409 1.431 1.409 3.754 0 5.183-.707.717-1.633 1.075-2.554 1.075zm3.318-30.792c-.742.753-1.715 1.129-2.682 1.129-.973 0-1.94-.376-2.682-1.129-1.479-1.501-1.479-3.939 0-5.443l2.682-2.721 2.682 2.721c1.48 1.503 1.48 3.942 0 5.443zm2.095-19.315l2.878-2.92 2.878 2.92c1.587 1.612 1.587 4.229 0 5.839-.797.809-1.84 1.212-2.878 1.212-1.043 0-2.081-.403-2.878-1.212-1.587-1.609-1.587-4.227 0-5.839zm.502 29.2l2.612-2.65 2.612 2.65c1.441 1.464 1.441 3.839 0 5.301-.723.732-1.67 1.1-2.612 1.1-.947 0-1.889-.367-2.612-1.1-1.441-1.462-1.441-3.837 0-5.301zm1.939 40.262l2.462-2.498 2.462 2.498c1.358 1.38 1.358 3.619 0 4.996-.681.691-1.574 1.037-2.462 1.037-.893 0-1.781-.346-2.462-1.037-1.358-1.377-1.358-3.616 0-4.996zm4.231-7.574c-.909 0-1.812-.352-2.506-1.055-1.382-1.402-1.382-3.682 0-5.086l2.506-2.543 2.506 2.543c1.382 1.404 1.382 3.684 0 5.086-.693.703-1.602 1.055-2.506 1.055zm4.248-20.2l2.548-2.585 2.548 2.585c1.406 1.428 1.406 3.745 0 5.171-.705.715-1.629 1.072-2.548 1.072-.924 0-1.843-.357-2.548-1.072-1.406-1.426-1.406-3.744 0-5.171zm5.569-33.691c-1.693-1.717-1.693-4.508 0-6.227l3.068-3.113 3.068 3.113c1.693 1.719 1.693 4.51 0 6.227-.849.86-1.962 1.292-3.068 1.292-1.112 0-2.219-.432-3.068-1.292zm1.699 20.826l2.637-2.675 2.637 2.675c1.455 1.479 1.455 3.877 0 5.352-.73.74-1.686 1.111-2.637 1.111-.956 0-1.907-.371-2.637-1.111-1.455-1.475-1.455-3.873 0-5.352zm.353 41.849l2.412-2.446 2.412 2.446c1.33 1.352 1.33 3.545 0 4.894-.667.678-1.542 1.016-2.412 1.016-.875 0-1.744-.338-2.412-1.016-1.33-1.349-1.33-3.543 0-4.894zm3.383-7.425c-.887 0-1.77-.344-2.447-1.03-1.351-1.369-1.351-3.595 0-4.967l2.447-2.483 2.447 2.483c1.351 1.372 1.351 3.598 0 4.967-.677.686-1.564 1.03-2.447 1.03zm3.603-47.299l2.866-2.908 2.866 2.908c1.581 1.606 1.581 4.213 0 5.816-.793.805-1.833 1.207-2.866 1.207-1.039 0-2.073-.402-2.866-1.207-1.581-1.603-1.581-4.209 0-5.816zm6.397-23.312c-.916.928-2.115 1.393-3.308 1.393-1.2 0-2.393-.465-3.308-1.393-1.825-1.852-1.825-4.859 0-6.714l3.308-3.356 3.308 3.356c1.825 1.854 1.825 4.862 0 6.714zm-.601-30.967c-2.006-2.035-2.006-5.343 0-7.382l3.638-3.69 3.638 3.69c2.006 2.039 2.006 5.347 0 7.382-1.007 1.021-2.326 1.531-3.638 1.531-1.319 0-2.631-.51-3.638-1.531zm3.711 41.436l3.092-3.137 3.092 3.137c1.706 1.733 1.706 4.545 0 6.274-.856.867-1.977 1.302-3.092 1.302-1.121 0-2.236-.435-3.092-1.302-1.705-1.73-1.705-4.541 0-6.274zm.336 55.312l2.375-2.41 2.375 2.41c1.311 1.331 1.311 3.491 0 4.82-.657.666-1.519 1-2.375 1-.861 0-1.718-.334-2.375-1-1.31-1.329-1.31-3.489 0-4.82zm3.437-22.138c-.951 0-1.897-.368-2.624-1.104-1.447-1.468-1.447-3.854 0-5.324l2.624-2.661 2.624 2.661c1.447 1.471 1.447 3.856 0 5.324-.726.736-1.678 1.104-2.624 1.104zm5.085-49.357l3.333-3.383 3.333 3.383c1.839 1.868 1.839 4.899 0 6.764-.923.937-2.131 1.404-3.333 1.404-1.208 0-2.411-.468-3.333-1.404-1.839-1.865-1.839-4.896 0-6.764zm.138 30.716l2.872-2.913 2.872 2.913c1.584 1.609 1.584 4.221 0 5.827-.795.807-1.836 1.209-2.872 1.209-1.041 0-2.077-.402-2.872-1.209-1.584-1.607-1.584-4.218 0-5.827zm.296 26.835l2.444-2.479 2.444 2.479c1.348 1.369 1.348 3.592 0 4.959-.676.686-1.562 1.028-2.444 1.028-.886 0-1.768-.343-2.444-1.028-1.348-1.367-1.348-3.59 0-4.959zm6.263 13.559l2.335-2.37 2.335 2.37c1.288 1.309 1.288 3.432 0 4.738-.646.655-1.493.983-2.335.983-.847 0-1.689-.328-2.335-.983-1.289-1.306-1.289-3.429 0-4.738zm.109 14.616l2.327-2.36 2.328 2.36c1.283 1.305 1.283 3.421 0 4.723-.645.653-1.488.979-2.328.979-.844 0-1.683-.326-2.327-.979-1.283-1.303-1.283-3.419 0-4.723zm2.991 12.937l2.32-2.354 2.32 2.354c1.279 1.3 1.279 3.409 0 4.707-.643.651-1.483.978-2.32.978-.841 0-1.678-.326-2.32-.978-1.279-1.298-1.279-3.407 0-4.707zm5.284-46.623c-.718.728-1.658 1.092-2.593 1.092-.94 0-1.875-.364-2.593-1.092-1.43-1.451-1.43-3.809 0-5.262l2.593-2.631 2.593 2.631c1.431 1.453 1.431 3.811 0 5.262zm.639-29.553c-.857.871-1.982 1.306-3.101 1.306-1.124 0-2.243-.435-3.101-1.306-1.711-1.734-1.711-4.555 0-6.292l3.101-3.146 3.101 3.146c1.711 1.738 1.711 4.558 0 6.292zm1.666 10.007l2.836-2.878 2.836 2.878c1.564 1.59 1.564 4.169 0 5.756-.785.796-1.813 1.194-2.836 1.194-1.028 0-2.051-.398-2.836-1.194-1.565-1.587-1.565-4.166 0-5.756zm1.799 28.764l2.415-2.45 2.415 2.45c1.332 1.354 1.332 3.549 0 4.9-.669.678-1.544 1.017-2.415 1.017-.875 0-1.746-.339-2.415-1.017-1.332-1.351-1.332-3.547 0-4.9zm5.462-90.407c-2.145-2.175-2.145-5.708 0-7.887l3.886-3.942 3.886 3.942c2.145 2.179 2.145 5.712 0 7.887-1.075 1.091-2.484 1.636-3.886 1.636-1.41-.001-2.811-.546-3.886-1.636zm9.648 62.574l2.856-2.898 2.856 2.898c1.576 1.602 1.576 4.199 0 5.797-.79.802-1.826 1.203-2.856 1.203-1.036 0-2.066-.401-2.856-1.203-1.576-1.598-1.576-4.196 0-5.797zm-.087 40.75l2.323-2.357 2.323 2.357c1.282 1.303 1.282 3.415 0 4.715-.643.652-1.485.979-2.323.979-.843 0-1.681-.326-2.323-.979-1.282-1.3-1.282-3.413 0-4.715zm4.41-6.969c-.883 0-1.761-.341-2.435-1.024-1.343-1.362-1.343-3.575 0-4.939l2.435-2.47 2.435 2.47c1.343 1.364 1.343 3.577 0 4.939-.674.683-1.557 1.024-2.435 1.024zm3.693 18.518l2.274-2.308 2.274 2.308c1.255 1.274 1.255 3.343 0 4.615-.63.639-1.454.958-2.274.958-.824 0-1.645-.319-2.274-.958-1.255-1.273-1.255-3.341 0-4.615zm4.168-32.01c-.96 0-1.914-.372-2.646-1.115-1.461-1.48-1.461-3.888 0-5.371l2.646-2.686 2.646 2.686c1.461 1.483 1.461 3.891 0 5.371-.732.743-1.692 1.115-2.646 1.115zm4.008 18.382l2.307-2.341 2.307 2.341c1.273 1.293 1.273 3.391 0 4.682-.639.647-1.475.972-2.307.972-.837 0-1.668-.324-2.307-.972-1.273-1.292-1.273-3.389 0-4.682zm5.355-8.002c-.894 0-1.782-.346-2.464-1.037-1.359-1.379-1.359-3.619 0-5l2.464-2.5 2.464 2.5c1.359 1.381 1.359 3.621 0 5-.682.691-1.575 1.037-2.464 1.037zm1.807 19.641l2.24-2.272 2.24 2.272c1.236 1.256 1.236 3.293 0 4.546-.62.629-1.433.943-2.24.943-.812 0-1.62-.314-2.24-.943-1.236-1.253-1.236-3.29 0-4.546zm4.895-103.054c-2.122-2.152-2.122-5.65 0-7.807l3.847-3.902 3.847 3.902c2.122 2.156 2.122 5.654 0 7.807-1.064 1.079-2.459 1.619-3.847 1.619-1.395 0-2.783-.54-3.847-1.619zm6.628 26.38l3.149 3.196c1.738 1.765 1.738 4.629 0 6.392-.871.884-2.014 1.326-3.149 1.326-1.142 0-2.278-.442-3.149-1.326-1.738-1.763-1.738-4.627 0-6.392l3.149-3.196zm-3.912 39.081l2.672-2.712 2.672 2.712c1.475 1.497 1.475 3.928 0 5.422-.739.751-1.708 1.126-2.672 1.126-.969 0-1.933-.375-2.672-1.126-1.475-1.495-1.475-3.925 0-5.422zm1.747 17.701l2.459-2.495 2.459 2.495c1.356 1.378 1.356 3.613 0 4.989-.681.689-1.572 1.035-2.459 1.035-.892 0-1.778-.346-2.459-1.035-1.357-1.376-1.357-3.611 0-4.989zm5.713-29.79c-.828.839-1.911 1.259-2.989 1.259-1.084 0-2.161-.42-2.989-1.259-1.648-1.673-1.648-4.391 0-6.065l2.989-3.033 2.989 3.033c1.648 1.674 1.648 4.392 0 6.065zm-.839-33.284c-1.271 0-2.537-.492-3.508-1.478-1.935-1.962-1.935-5.151 0-7.117l3.508-3.56 3.508 3.56c1.935 1.966 1.935 5.155 0 7.117-.971.986-2.243 1.478-3.508 1.478zm5.085-39.552l3.988-4.047 3.988 4.047c2.201 2.235 2.201 5.862 0 8.094-1.104 1.12-2.55 1.68-3.988 1.68-1.446 0-2.885-.56-3.988-1.68-2.201-2.232-2.201-5.859 0-8.094zm3.063 92.176l2.61-2.649 2.61 2.649c1.44 1.463 1.44 3.837 0 5.298-.723.732-1.669 1.1-2.61 1.1-.946 0-1.888-.367-2.61-1.1-1.44-1.462-1.44-3.836 0-5.298zm3.321 15.459l2.357-2.392 2.357 2.392c1.3 1.321 1.3 3.465 0 4.784-.652.661-1.508.992-2.357.992-.854 0-1.705-.331-2.357-.992-1.3-1.319-1.3-3.462 0-4.784zm2.788-61.744c-1.897-1.925-1.897-5.054 0-6.981l3.44-3.49 3.44 3.49c1.897 1.928 1.897 5.057 0 6.981-.952.966-2.2 1.448-3.44 1.448-1.247.001-2.488-.482-3.44-1.448zm9.303 19.726l2.899-2.941 2.899 2.941c1.599 1.625 1.599 4.261 0 5.883-.803.814-1.854 1.221-2.899 1.221-1.051 0-2.097-.406-2.899-1.221-1.598-1.622-1.598-4.258 0-5.883zm5.348-37.23l3.412-3.462 3.412 3.462c1.882 1.912 1.882 5.015 0 6.924-.944.957-2.182 1.437-3.412 1.437-1.237 0-2.468-.479-3.412-1.437-1.882-1.909-1.882-5.011 0-6.924zm8.288-53.383l4.246-4.308 4.246 4.308c2.342 2.38 2.342 6.24 0 8.615-1.176 1.192-2.715 1.788-4.246 1.788-1.539 0-3.07-.596-4.246-1.788-2.342-2.375-2.342-6.235 0-8.615zm3.151 22.283l3.906-3.963 3.906 3.963c2.154 2.188 2.154 5.741 0 7.926-1.081 1.097-2.498 1.645-3.906 1.645-1.416 0-2.825-.548-3.906-1.645-2.155-2.185-2.155-5.738 0-7.926zm11.308 27.345c-.978.991-2.258 1.486-3.531 1.486-1.28 0-2.554-.495-3.531-1.486-1.947-1.976-1.947-5.187 0-7.166l3.531-3.582 3.531 3.582c1.947 1.979 1.947 5.19 0 7.166zm-1.069 19.626c-.899.912-2.077 1.368-3.249 1.368-1.178 0-2.35-.456-3.249-1.368-1.793-1.818-1.793-4.773 0-6.595l3.249-3.297 3.249 3.297c1.793 1.821 1.793 4.776 0 6.595zm3.378-79.666l4.299-4.361 4.299 4.361c2.372 2.409 2.372 6.318 0 8.724-1.189 1.207-2.748 1.811-4.299 1.811-1.559 0-3.109-.604-4.299-1.811-2.372-2.406-2.372-6.315 0-8.724zm2.341 20.709l3.932-3.989 3.932 3.989c2.169 2.203 2.169 5.778 0 7.979-1.088 1.104-2.514 1.655-3.932 1.655-1.426 0-2.844-.552-3.932-1.655-2.169-2.201-2.169-5.776 0-7.979zm2.821 19.933l3.615-3.668 3.615 3.668c1.994 2.025 1.994 5.313 0 7.336-1.001 1.015-2.312 1.521-3.615 1.521-1.311 0-2.614-.507-3.615-1.521-1.994-2.022-1.994-5.311 0-7.336zm9.476-44.795c-2.333-2.366-2.333-6.213 0-8.583l4.229-4.292 4.229 4.292c2.333 2.37 2.333 6.217 0 8.583-1.171 1.188-2.704 1.781-4.229 1.781-1.532 0-3.058-.593-4.229-1.781zm5.04 14.987l3.93-3.987 3.93 3.987c2.168 2.203 2.168 5.776 0 7.975-1.088 1.104-2.513 1.655-3.93 1.655-1.425 0-2.842-.552-3.93-1.655-2.168-2.198-2.168-5.771 0-7.975zm1.204 19.519l3.592-3.646 3.592 3.646c1.982 2.013 1.982 5.279 0 7.289-.994 1.008-2.296 1.513-3.592 1.513-1.303 0-2.598-.505-3.592-1.513-1.983-2.01-1.983-5.276 0-7.289zm.636 20.868l3.332-3.38 3.332 3.38c1.838 1.867 1.838 4.896 0 6.761-.923.936-2.131 1.402-3.332 1.402-1.208 0-2.409-.467-3.332-1.402-1.838-1.864-1.838-4.894 0-6.761zm9.709-75.258l4.17-4.231 4.17 4.231c2.301 2.337 2.301 6.129 0 8.462-1.154 1.171-2.666 1.756-4.17 1.756-1.512 0-3.016-.585-4.17-1.756-2.3-2.332-2.3-6.124 0-8.462zm.74 21.861l3.853-3.908 3.853 3.908c2.125 2.159 2.125 5.662 0 7.817-1.066 1.082-2.463 1.622-3.853 1.622-1.396 0-2.786-.54-3.853-1.622-2.125-2.155-2.125-5.658 0-7.817zm5.524 22.435l3.564-3.616 3.564 3.616c1.966 1.997 1.966 5.239 0 7.233-.986 1-2.279 1.5-3.564 1.5-1.292 0-2.578-.5-3.564-1.5-1.966-1.993-1.966-5.236 0-7.233zm6.005-69.97c-2.385-2.418-2.385-6.35 0-8.772l4.323-4.387 4.323 4.387c2.385 2.422 2.385 6.354 0 8.772-1.197 1.213-2.765 1.82-4.323 1.82-1.567 0-3.126-.607-4.323-1.82zm4.301 13.559l4.022-4.082 4.022 4.082c2.22 2.254 2.22 5.913 0 8.163-1.113 1.129-2.571 1.694-4.022 1.694-1.459 0-2.909-.564-4.022-1.694-2.22-2.25-2.22-5.908 0-8.163zm.242 21.463l3.79-3.846 3.79 3.846c2.091 2.124 2.091 5.571 0 7.691-1.049 1.064-2.423 1.597-3.79 1.597-1.374 0-2.741-.532-3.79-1.597-2.091-2.121-2.091-5.567 0-7.691zm.015 21.132l3.515-3.566 3.515 3.566c1.938 1.97 1.938 5.165 0 7.131-.973.986-2.247 1.48-3.515 1.48-1.274 0-2.542-.494-3.515-1.48-1.938-1.966-1.938-5.161 0-7.131zm10.759-69.883c-1.438 0-2.866-.557-3.964-1.669-2.187-2.218-2.187-5.822 0-8.043l3.964-4.021 3.964 4.021c2.187 2.221 2.187 5.826 0 8.043-1.098 1.112-2.534 1.669-3.964 1.669zm11.605-46.417c-1.002 1.017-2.315 1.525-3.622 1.525-1.313 0-2.62-.508-3.622-1.525-1.999-2.026-1.999-5.321 0-7.351l3.622-3.676 3.622 3.676c1.999 2.03 1.999 5.324 0 7.351zm4.8 24.153c2.053 2.085 2.053 5.468 0 7.549-1.029 1.044-2.378 1.566-3.72 1.566-1.349 0-2.69-.522-3.72-1.566-2.053-2.081-2.053-5.464 0-7.549l3.72-3.774 3.72 3.774zm-11.131-15.265c2.158 2.193 2.158 5.751 0 7.94-1.083 1.099-2.502 1.647-3.913 1.647-1.419 0-2.83-.549-3.913-1.647-2.158-2.189-2.158-5.747 0-7.94l3.913-3.97 3.913 3.97zm-1.838 51.886l3.861-3.917 3.861 3.917c2.13 2.164 2.13 5.676 0 7.836-1.068 1.084-2.469 1.625-3.861 1.625-1.4 0-2.793-.542-3.861-1.625-2.13-2.161-2.13-5.672 0-7.836zm1.132 44.2l3.472-3.522 3.472 3.522c1.915 1.945 1.915 5.103 0 7.045-.961.975-2.22 1.462-3.472 1.462-1.259 0-2.511-.487-3.472-1.462-1.915-1.943-1.915-5.1 0-7.045zm8.202-14.678c-1.021 1.034-2.356 1.552-3.686 1.552-1.336 0-2.665-.518-3.686-1.552-2.033-2.062-2.033-5.414 0-7.479l3.686-3.74 3.686 3.74c2.033 2.065 2.033 5.417 0 7.479zm.607-37.666c-1.959-1.987-1.959-5.216 0-7.206l3.551-3.603 3.551 3.603c1.959 1.99 1.959 5.219 0 7.206-.982.997-2.271 1.495-3.551 1.495-1.287.001-2.568-.498-3.551-1.495zm20.586 9.664c-.904.917-2.088 1.375-3.266 1.375-1.184 0-2.361-.458-3.266-1.375-1.801-1.827-1.801-4.796 0-6.626l3.266-3.313 3.266 3.313c1.801 1.829 1.801 4.798 0 6.626zm1.902 17.545l3.151 3.197c1.738 1.766 1.738 4.632 0 6.395-.872.885-2.015 1.327-3.151 1.327-1.143 0-2.279-.442-3.151-1.327-1.738-1.763-1.738-4.628 0-6.395l3.151-3.197zm-8.998-9.084c1.926 1.956 1.926 5.129 0 7.081-.966.98-2.23 1.47-3.489 1.47-1.266 0-2.523-.49-3.489-1.47-1.926-1.952-1.926-5.125 0-7.081l3.489-3.541 3.489 3.541zm-3.927-52.977c-1.266 0-2.523-.49-3.489-1.47-1.926-1.952-1.926-5.125 0-7.081l3.489-3.541 3.489 3.541c1.926 1.956 1.926 5.129 0 7.081-.966.98-2.23 1.47-3.489 1.47zm-5.249 115.799l2.973-3.016 2.973 3.016c1.64 1.666 1.64 4.369 0 6.031-.823.835-1.9 1.252-2.973 1.252-1.078 0-2.149-.417-2.973-1.252-1.64-1.662-1.64-4.365 0-6.031zm4.81-11.584c-1.15 0-2.295-.445-3.174-1.336-1.751-1.775-1.751-4.662 0-6.44l3.174-3.22 3.174 3.22c1.751 1.778 1.751 4.665 0 6.44-.879.891-2.029 1.336-3.174 1.336zm4.073-20.895c-.93.942-2.147 1.414-3.359 1.414-1.218 0-2.43-.472-3.359-1.414-1.854-1.88-1.854-4.935 0-6.818l3.359-3.409 3.359 3.409c1.854 1.883 1.854 4.938 0 6.818zm2.45 42.235l2.778-2.819 2.778 2.819c1.533 1.557 1.533 4.083 0 5.638-.769.78-1.776 1.17-2.778 1.17-1.008 0-2.01-.39-2.778-1.17-1.534-1.555-1.534-4.081 0-5.638zm3.835-13.471c-1.617-1.64-1.617-4.305 0-5.947l2.931-2.975 2.931 2.975c1.617 1.643 1.617 4.308 0 5.947-.811.822-1.874 1.234-2.931 1.234-1.063.001-2.121-.411-2.931-1.234zm4.595-18.665c-1.11 0-2.215-.43-3.062-1.29-1.69-1.714-1.69-4.499 0-6.215l3.062-3.108 3.062 3.108c1.69 1.716 1.69 4.501 0 6.215-.847.861-1.957 1.29-3.062 1.29zm-3.275-93.05l3.185-3.231 3.185 3.231c1.757 1.784 1.757 4.68 0 6.461-.882.894-2.036 1.341-3.185 1.341-1.154 0-2.303-.447-3.185-1.341-1.757-1.781-1.757-4.677 0-6.461zm-1.897 21.357c-.929.942-2.146 1.414-3.357 1.414-1.218 0-2.429-.472-3.357-1.414-1.853-1.878-1.853-4.932 0-6.813l3.357-3.407 3.357 3.407c1.852 1.881 1.852 4.935 0 6.813zm-8.941-45.508l3.236-3.284 3.236 3.284c1.785 1.813 1.785 4.756 0 6.566-.896.909-2.069 1.363-3.236 1.363-1.173 0-2.34-.454-3.236-1.363-1.785-1.81-1.785-4.753 0-6.566zm-10.694-16.863l3.366-3.415 3.366 3.415c1.856 1.886 1.856 4.947 0 6.83-.932.945-2.152 1.417-3.366 1.417-1.221 0-2.435-.472-3.366-1.417-1.857-1.883-1.857-4.944 0-6.83zm-10.166-16.353l3.296-3.344 3.296 3.344c1.818 1.847 1.818 4.845 0 6.689-.912.925-2.107 1.388-3.296 1.388-1.195 0-2.384-.462-3.296-1.388-1.819-1.844-1.819-4.841 0-6.689zm-1.473 17.165c2.075 2.108 2.075 5.529 0 7.633-1.041 1.056-2.405 1.584-3.762 1.584-1.364 0-2.721-.528-3.762-1.584-2.075-2.104-2.075-5.525 0-7.633l3.762-3.816 3.762 3.816zm-13.596-36l3.282-3.33 3.282 3.33c1.811 1.839 1.811 4.824 0 6.66-.908.921-2.099 1.382-3.282 1.382-1.19 0-2.374-.46-3.282-1.382-1.81-1.836-1.81-4.82 0-6.66zm-.988 17.635l3.572-3.624 3.572 3.624c1.971 2.002 1.971 5.25 0 7.249-.989 1.003-2.284 1.504-3.572 1.504-1.295 0-2.583-.501-3.572-1.504-1.971-1.999-1.971-5.247 0-7.249zm-3.879 17.842c2.276 2.313 2.276 6.065 0 8.375-1.143 1.158-2.639 1.737-4.127 1.737-1.496 0-2.984-.579-4.127-1.737-2.276-2.309-2.276-6.062 0-8.375l4.127-4.187 4.127 4.187zm-12.503-52.828l3.244-3.292 3.244 3.292c1.79 1.818 1.79 4.769 0 6.584-.897.911-2.074 1.366-3.244 1.366-1.177 0-2.347-.455-3.244-1.366-1.79-1.815-1.79-4.765 0-6.584zm-.982 15.839l3.537-3.588 3.537 3.588c1.95 1.982 1.95 5.198 0 7.177-.979.993-2.262 1.489-3.537 1.489-1.282 0-2.558-.496-3.537-1.489-1.95-1.979-1.95-5.195 0-7.177zm-1.373 17.405l3.89-3.946 3.89 3.946c2.146 2.18 2.146 5.717 0 7.893-1.077 1.092-2.487 1.638-3.89 1.638-1.41 0-2.812-.546-3.89-1.638-2.146-2.176-2.146-5.713 0-7.893zm-5.177 20.172c-1.181 1.197-2.728 1.796-4.266 1.796-1.547 0-3.085-.599-4.266-1.796-2.354-2.387-2.354-6.266 0-8.656l4.266-4.328 4.266 4.328c2.354 2.391 2.354 6.27 0 8.656zm-1.863-42.296c-.972.985-2.245 1.478-3.511 1.478-1.272 0-2.539-.493-3.511-1.478-1.937-1.964-1.937-5.156 0-7.124l3.511-3.562 3.511 3.562c1.936 1.968 1.936 5.16 0 7.124zm-8.878-24.535l3.183-3.229 3.183 3.229c1.755 1.783 1.755 4.677 0 6.458-.881.893-2.035 1.34-3.183 1.34-1.153 0-2.302-.447-3.183-1.34-1.755-1.781-1.755-4.675 0-6.458zm-2.451 36.949l3.903-3.96 3.903 3.96c2.152 2.188 2.152 5.736 0 7.92-1.081 1.096-2.496 1.644-3.903 1.644-1.415 0-2.822-.548-3.903-1.644-2.153-2.184-2.153-5.732 0-7.92zm-5.56-7.642c-1.042 1.057-2.406 1.585-3.764 1.585-1.364 0-2.722-.528-3.764-1.585-2.076-2.105-2.076-5.528 0-7.637l3.764-3.819 3.764 3.819c2.076 2.11 2.076 5.532 0 7.637zm-2.129-19.249c-.939.952-2.169 1.428-3.393 1.428-1.229 0-2.453-.476-3.393-1.428-1.871-1.898-1.871-4.983 0-6.884l3.393-3.442 3.393 3.442c1.871 1.901 1.871 4.986 0 6.884zm-9.803-22.396l3.087-3.132 3.087 3.132c1.703 1.73 1.703 4.538 0 6.265-.854.867-1.974 1.3-3.087 1.3-1.119 0-2.232-.433-3.087-1.3-1.703-1.727-1.703-4.534 0-6.265zm-1.33 53.693c-1.141 1.157-2.635 1.735-4.121 1.735-1.494 0-2.98-.579-4.121-1.735-2.273-2.305-2.273-6.052 0-8.362l4.121-4.181 4.121 4.181c2.274 2.31 2.274 6.057 0 8.362zm-5.329-21.09c-1.024 1.039-2.365 1.558-3.7 1.558-1.342 0-2.676-.52-3.7-1.558-2.042-2.07-2.042-5.436 0-7.509l3.7-3.755 3.7 3.755c2.042 2.074 2.042 5.439 0 7.509zm-2.601-18.507c-.918.931-2.121 1.396-3.317 1.396-1.203 0-2.399-.465-3.317-1.396-1.83-1.856-1.83-4.872 0-6.731l3.317-3.365 3.317 3.365c1.83 1.859 1.83 4.875 0 6.731zm-9.778-22.484l3.001-3.044 3.001 3.044c1.655 1.682 1.655 4.41 0 6.089-.831.842-1.919 1.263-3.001 1.263-1.088 0-2.17-.421-3.001-1.263-1.655-1.679-1.655-4.407 0-6.089zm-2.512 52.803c-1.104 1.12-2.551 1.68-3.99 1.68-1.447 0-2.886-.56-3.99-1.68-2.201-2.232-2.201-5.861 0-8.097l3.99-4.049 3.99 4.049c2.201 2.237 2.201 5.865 0 8.097zm-3.202-20.574c-.978.992-2.258 1.487-3.531 1.487-1.28 0-2.554-.496-3.531-1.487-1.948-1.976-1.948-5.187 0-7.166l3.531-3.583 3.531 3.583c1.949 1.98 1.949 5.191 0 7.166zm-3.157-17.137c-.88.892-2.032 1.338-3.178 1.338-1.152 0-2.298-.446-3.178-1.338-1.753-1.777-1.753-4.667 0-6.448l3.178-3.224 3.178 3.224c1.753 1.781 1.753 4.671 0 6.448zm-9.402-21.968l2.878-2.92 2.878 2.92c1.587 1.612 1.587 4.229 0 5.839-.797.808-1.84 1.212-2.878 1.212-1.043 0-2.081-.404-2.878-1.212-1.587-1.61-1.587-4.226 0-5.839zm-2.042 50.93c-1.037 1.052-2.396 1.578-3.747 1.578-1.358 0-2.71-.526-3.747-1.578-2.067-2.097-2.067-5.504 0-7.604l3.747-3.802 3.747 3.802c2.067 2.1 2.067 5.507 0 7.604zm-4.97-18.143c-.925.938-2.136 1.406-3.34 1.406-1.211 0-2.415-.469-3.34-1.406-1.842-1.868-1.842-4.905 0-6.776l3.34-3.389 3.34 3.389c1.842 1.871 1.842 4.908 0 6.776zm-1.855-16.197c-.837.849-1.934 1.273-3.024 1.273-1.097 0-2.188-.425-3.024-1.273-1.669-1.692-1.669-4.443 0-6.138l3.024-3.069 3.024 3.069c1.669 1.695 1.669 4.446 0 6.138zm-8.801-21.403l2.76-2.8 2.76 2.8c1.522 1.546 1.522 4.056 0 5.6-.764.775-1.765 1.162-2.76 1.162-1.001 0-1.996-.387-2.76-1.162-1.523-1.544-1.523-4.054 0-5.6zm.486 59.417c2.145 2.179 2.145 5.715 0 7.89-1.077 1.091-2.486 1.637-3.889 1.637-1.41 0-2.812-.546-3.889-1.637-2.145-2.175-2.145-5.711 0-7.89l3.889-3.945 3.889 3.945zm-5.532-10.463c-.972.985-2.245 1.478-3.511 1.478-1.272 0-2.539-.493-3.511-1.478-1.937-1.964-1.937-5.157 0-7.124l3.511-3.562 3.511 3.562c1.937 1.967 1.937 5.159 0 7.124zm-3.881-17.052c-.881.894-2.035 1.341-3.184 1.341-1.154 0-2.303-.447-3.184-1.341-1.756-1.781-1.756-4.676 0-6.46l3.184-3.23 3.184 3.23c1.756 1.784 1.756 4.679 0 6.46zm-.227-15.346c-.809.819-1.866 1.229-2.919 1.229-1.059 0-2.11-.41-2.919-1.229-1.61-1.633-1.61-4.287 0-5.923l2.919-2.961 2.919 2.961c1.61 1.636 1.61 4.29 0 5.923zm-8.317-20.864l2.646-2.685 2.646 2.685c1.46 1.483 1.46 3.89 0 5.371-.732.743-1.692 1.114-2.646 1.114-.96 0-1.914-.372-2.646-1.114-1.46-1.481-1.46-3.888 0-5.371zm2.619 72.283c2.212 2.247 2.212 5.893 0 8.135-1.109 1.125-2.563 1.688-4.009 1.688-1.453 0-2.899-.563-4.009-1.688-2.212-2.243-2.212-5.888 0-8.135l4.009-4.067 4.009 4.067zm-7.163-10.018c-.999 1.013-2.308 1.52-3.609 1.52-1.309 0-2.61-.507-3.609-1.52-1.991-2.019-1.991-5.301 0-7.324l3.609-3.662 3.609 3.662c1.991 2.023 1.991 5.305 0 7.324zm-3.077-16.88c-.913.926-2.109 1.39-3.3 1.39-1.196 0-2.387-.463-3.3-1.39-1.821-1.846-1.821-4.847 0-6.697l3.3-3.348 3.3 3.348c1.821 1.85 1.821 4.851 0 6.697zm-6.358-39.574l2.78-2.821 2.78 2.821c1.534 1.559 1.534 4.087 0 5.643-.77.781-1.777 1.171-2.78 1.171-1.008 0-2.011-.39-2.78-1.171-1.534-1.556-1.534-4.085 0-5.643zm-1.79 15.973l2.997-3.041 2.997 3.041c1.653 1.68 1.653 4.405 0 6.082-.83.841-1.916 1.262-2.997 1.262-1.087 0-2.167-.42-2.997-1.262-1.654-1.677-1.654-4.402 0-6.082zm-2.158 53.355c-1.04 1.055-2.403 1.583-3.759 1.583-1.363 0-2.719-.528-3.759-1.583-2.073-2.103-2.073-5.521 0-7.627l3.759-3.814 3.759 3.814c2.073 2.106 2.073 5.525 0 7.627zm-8.59-77.113l2.529-2.566 2.529 2.566c1.396 1.417 1.396 3.717 0 5.132-.7.71-1.617 1.065-2.529 1.065-.917 0-1.829-.355-2.529-1.065-1.396-1.415-1.396-3.715 0-5.132zm-2.753 14.285l2.658-2.697 2.658 2.697c1.466 1.489 1.466 3.906 0 5.393-.736.746-1.699 1.119-2.658 1.119-.964 0-1.922-.373-2.658-1.119-1.466-1.487-1.466-3.904 0-5.393zm-.857 20.248l3.114-3.16 3.114 3.16c1.719 1.746 1.719 4.578 0 6.32-.861.875-1.991 1.312-3.114 1.312-1.129 0-2.253-.437-3.114-1.312-1.718-1.742-1.718-4.575 0-6.32zm-2.052 17.522l3.383-3.433 3.383 3.433c1.867 1.896 1.867 4.973 0 6.865-.937.95-2.163 1.425-3.383 1.425-1.227 0-2.446-.475-3.383-1.425-1.867-1.892-1.867-4.969 0-6.865zm-3.872-24.585c-.778.789-1.796 1.183-2.81 1.183-1.019 0-2.032-.394-2.81-1.183-1.55-1.572-1.55-4.127 0-5.701l2.81-2.851 2.81 2.851c1.55 1.574 1.55 4.129 0 5.701zm-6.991-25.886l2.434-2.469 2.434 2.469c1.342 1.364 1.342 3.577 0 4.938-.674.683-1.556 1.024-2.434 1.024-.882 0-1.76-.341-2.434-1.024-1.343-1.361-1.343-3.574 0-4.938zm-.14 32.522l3.008 3.052c1.659 1.686 1.659 4.421 0 6.104-.833.844-1.923 1.267-3.008 1.267-1.09 0-2.175-.422-3.008-1.267-1.659-1.683-1.659-4.418 0-6.104l3.008-3.052zm-10.104-22.002l2.537-2.574 2.537 2.574c1.399 1.421 1.399 3.728 0 5.147-.702.712-1.622 1.068-2.537 1.068-.919 0-1.834-.356-2.537-1.068-1.4-1.419-1.4-3.726 0-5.147zm-.744 14.873c1.485 1.509 1.485 3.957 0 5.463-.745.756-1.721 1.133-2.692 1.133-.976 0-1.947-.377-2.692-1.133-1.485-1.506-1.485-3.954 0-5.463l2.692-2.731 2.692 2.731zm-8.796-24.361l2.331-2.365 2.331 2.365c1.286 1.306 1.286 3.425 0 4.729-.645.654-1.49.981-2.331.981-.845 0-1.686-.327-2.331-.981-1.286-1.303-1.286-3.423 0-4.729zm-7.232 13.767l2.446-2.482 2.446 2.482c1.349 1.371 1.349 3.595 0 4.964-.677.687-1.564 1.03-2.446 1.03-.887 0-1.769-.343-2.446-1.03-1.349-1.368-1.349-3.593 0-4.964zm-1.255 14.603c1.409 1.432 1.409 3.754 0 5.183-.707.717-1.633 1.075-2.554 1.075-.926 0-1.847-.358-2.554-1.075-1.409-1.429-1.409-3.751 0-5.183l2.554-2.591 2.554 2.591zm-8.466-24.179l2.25-2.283 2.25 2.283c1.241 1.261 1.241 3.307 0 4.566-.623.632-1.438.947-2.25.947-.816 0-1.627-.315-2.25-.947-1.241-1.259-1.241-3.305 0-4.566zm-6.774 14.701l2.327-2.361 2.327 2.361c1.284 1.304 1.284 3.419 0 4.721-.644.653-1.488.979-2.327.979-.844 0-1.683-.327-2.327-.979-1.284-1.301-1.284-3.417 0-4.721zm-4.081 38.43c-.768.779-1.774 1.168-2.774 1.168-1.006 0-2.006-.39-2.774-1.168-1.53-1.552-1.53-4.075 0-5.63l2.774-2.815 2.774 2.815c1.531 1.556 1.531 4.078 0 5.63zm-4.705-49.52l2.182-2.213 2.182 2.213c1.204 1.223 1.204 3.207 0 4.428-.604.612-1.395.918-2.182.918-.791 0-1.578-.306-2.182-.918-1.204-1.221-1.204-3.204 0-4.428zm-6.673 11.797l2.243-2.276 2.243 2.276c1.238 1.257 1.238 3.297 0 4.552-.621.63-1.434.945-2.243.945-.813 0-1.623-.315-2.243-.945-1.238-1.255-1.238-3.295 0-4.552zm-3.863 20.335l2.537 2.574c1.399 1.421 1.399 3.728 0 5.147-.702.712-1.622 1.068-2.537 1.068-.919 0-1.834-.356-2.537-1.068-1.399-1.419-1.399-3.726 0-5.147l2.537-2.574zm-8.359-25.307l2.131-2.162 2.131 2.162c1.175 1.194 1.175 3.131 0 4.324-.59.598-1.362.897-2.131.897-.772 0-1.541-.299-2.131-.897-1.175-1.192-1.175-3.13 0-4.324zm-.558 15.318l2.324-2.358 2.324 2.358c1.283 1.303 1.283 3.417 0 4.717-.643.652-1.486.979-2.324.979-.843 0-1.681-.326-2.324-.979-1.283-1.3-1.283-3.414 0-4.717zm-2.134 47.333c-.724.734-1.672 1.101-2.615 1.101-.948 0-1.891-.367-2.615-1.101-1.442-1.463-1.442-3.841 0-5.306l2.615-2.653 2.615 2.653c1.443 1.465 1.443 3.843 0 5.306zm-2.797-31.244c1.254 1.273 1.254 3.339 0 4.611-.629.638-1.453.957-2.272.957-.824 0-1.643-.319-2.272-.957-1.254-1.271-1.254-3.337 0-4.611l2.272-2.306 2.272 2.306zm-8.262-24.79l2.093-2.124 2.093 2.124c1.155 1.173 1.155 3.077 0 4.248-.58.588-1.338.881-2.093.881-.759 0-1.514-.293-2.093-.881-1.154-1.171-1.154-3.075 0-4.248zm-1.594 13.475l2.196-2.228 2.196 2.228c1.211 1.231 1.211 3.228 0 4.457-.608.617-1.404.925-2.196.925-.796 0-1.588-.308-2.196-.925-1.211-1.229-1.211-3.226 0-4.457zm-.263 24.423l2.42-2.456 2.42 2.456c1.335 1.357 1.335 3.558 0 4.912-.67.68-1.547 1.019-2.42 1.019-.877 0-1.75-.339-2.42-1.019-1.335-1.354-1.335-3.555 0-4.912zm-2.103 26.399l2.693-2.732 2.693 2.732c1.485 1.509 1.485 3.958 0 5.464-.746.756-1.722 1.134-2.693 1.134-.976 0-1.947-.378-2.693-1.134-1.485-1.506-1.485-3.954 0-5.464zm-2.639-8.078c-.682.691-1.575 1.037-2.463 1.037-.893 0-1.781-.346-2.463-1.037-1.359-1.378-1.359-3.618 0-4.998l2.463-2.499 2.463 2.499c1.359 1.38 1.359 3.62 0 4.998zm-8.131-16.419c-1.252-1.27-1.252-3.334 0-4.606l2.27-2.303 2.27 2.303c1.252 1.272 1.252 3.336 0 4.606-.628.637-1.451.956-2.27.956-.823 0-1.641-.319-2.27-.956zm5.977-13.276c-.592.601-1.367.901-2.139.901-.775 0-1.547-.3-2.139-.901-1.18-1.196-1.18-3.142 0-4.34l2.139-2.17 2.139 2.17c1.18 1.199 1.18 3.144 0 4.34zm-6.113-18.053l2.074-2.105 2.074 2.105c1.145 1.162 1.145 3.048 0 4.209-.574.582-1.326.874-2.074.874-.752 0-1.5-.292-2.074-.874-1.145-1.161-1.145-3.047 0-4.209zm-.562 66.408l2.752-2.792 2.752 2.792c1.518 1.542 1.518 4.045 0 5.585-.762.772-1.76 1.159-2.752 1.159-.998 0-1.99-.386-2.752-1.159-1.518-1.54-1.518-4.043 0-5.585zm1.382 14.431c1.498 1.521 1.498 3.99 0 5.509-.751.762-1.736 1.144-2.715 1.144-.984 0-1.963-.381-2.715-1.144-1.498-1.519-1.498-3.987 0-5.509l2.715-2.754 2.715 2.754zm-4.199-22.233c-.704.713-1.625 1.07-2.541 1.07-.921 0-1.837-.356-2.541-1.07-1.401-1.421-1.401-3.732 0-5.156l2.541-2.578 2.541 2.578c1.402 1.424 1.402 3.735 0 5.156zm-2.283-16.916c-.634.643-1.465.965-2.292.965-.831 0-1.658-.322-2.292-.965-1.264-1.282-1.264-3.367 0-4.651l2.292-2.325 2.292 2.325c1.264 1.284 1.264 3.368 0 4.651zm-6.84-33.008l2.054-2.083 2.054 2.083c1.133 1.151 1.133 3.019 0 4.167-.568.577-1.313.865-2.054.865-.745 0-1.485-.288-2.054-.865-1.133-1.149-1.133-3.016 0-4.167zm-.814 13.234l2.166-2.198 2.166 2.198c1.195 1.214 1.195 3.183 0 4.395-.6.608-1.385.912-2.166.912-.785 0-1.566-.304-2.166-.912-1.195-1.212-1.195-3.182 0-4.395zm-3.361 24.431c1.275 1.295 1.275 3.396 0 4.689-.64.648-1.477.973-2.311.973-.838 0-1.671-.324-2.311-.973-1.275-1.293-1.275-3.394 0-4.689l2.311-2.344 2.311 2.344zm-4.243-9.994c-.596.604-1.377.907-2.153.907-.781 0-1.557-.302-2.153-.907-1.188-1.205-1.188-3.163 0-4.369l2.153-2.185 2.153 2.185c1.188 1.206 1.188 3.164 0 4.369zm-5.663-18.044l2.056-2.086 2.056 2.086c1.134 1.152 1.134 3.022 0 4.172-.569.577-1.314.866-2.056.866-.746 0-1.487-.289-2.056-.866-1.134-1.15-1.134-3.02 0-4.172zm-2.912 39.477l2.246-2.279 2.246 2.279c1.239 1.259 1.239 3.301 0 4.558-.622.63-1.436.946-2.246.946-.814 0-1.624-.315-2.246-.946-1.239-1.257-1.239-3.299 0-4.558zm-2.288-14.036c1.165 1.184 1.165 3.104 0 4.286-.585.593-1.351.889-2.112.889-.766 0-1.527-.296-2.112-.889-1.165-1.182-1.165-3.103 0-4.286l2.112-2.143 2.112 2.143zm-7.316-13.785l2.061-2.091 2.061 2.091c1.137 1.155 1.137 3.028 0 4.181-.57.579-1.317.868-2.061.868-.747 0-1.49-.289-2.061-.868-1.137-1.152-1.137-3.026 0-4.181zm-.31 36.999l2.282-2.315 2.282 2.315c1.259 1.279 1.259 3.354 0 4.631-.632.641-1.459.961-2.282.961-.828 0-1.65-.32-2.282-.961-1.258-1.277-1.258-3.352 0-4.631zm-2.19-12.336c1.179 1.198 1.179 3.142 0 4.338-.592.6-1.367.9-2.138.9-.775 0-1.546-.3-2.138-.9-1.179-1.196-1.179-3.14 0-4.338l2.138-2.169 2.138 2.169zm-8.603-12.939l2.061-2.091 2.061 2.091c1.137 1.155 1.137 3.029 0 4.183-.57.579-1.318.868-2.061.868-.748 0-1.491-.289-2.061-.868-1.138-1.154-1.138-3.028 0-4.183zm-2.859 23.125l2.157 2.188c1.19 1.209 1.19 3.17 0 4.377-.597.605-1.379.908-2.157.908-.782 0-1.56-.303-2.157-.908-1.19-1.207-1.19-3.168 0-4.377l2.157-2.188zm-7.392-10.485l2.1-2.131 2.1 2.131c1.159 1.177 1.159 3.086 0 4.261-.582.589-1.343.884-2.1.884-.761 0-1.519-.295-2.1-.884-1.159-1.175-1.159-3.085 0-4.261zm-1.207 23.998l2.169 2.201c1.197 1.216 1.197 3.188 0 4.401-.601.609-1.387.914-2.169.914-.787 0-1.568-.305-2.169-.914-1.197-1.213-1.197-3.186 0-4.401l2.169-2.201zm-8.037-10.64l2.124-2.154 2.124 2.154c1.171 1.19 1.171 3.121 0 4.309-.588.596-1.358.894-2.124.894-.77 0-1.536-.298-2.124-.894-1.171-1.188-1.171-3.119 0-4.309zm-.309 24.615l2.178 2.21c1.202 1.221 1.202 3.201 0 4.42-.603.611-1.393.917-2.178.917-.79 0-1.575-.306-2.178-.917-1.202-1.219-1.202-3.199 0-4.42l2.178-2.21zm-7.908-10.678l2.15-2.182 2.15 2.182c1.187 1.205 1.187 3.161 0 4.364-.595.604-1.375.905-2.15.905-.78 0-1.555-.302-2.15-.905-1.186-1.204-1.186-3.159 0-4.364zm.056 26.739c1.206 1.225 1.206 3.213 0 4.437-.605.613-1.397.92-2.186.92-.792 0-1.581-.307-2.186-.92-1.206-1.223-1.206-3.211 0-4.437l2.186-2.218 2.186 2.218zm-8.476-12.15l2.178-2.21 2.178 2.21c1.201 1.221 1.201 3.201 0 4.42-.603.611-1.393.917-2.178.917-.79 0-1.575-.306-2.178-.917-1.201-1.219-1.201-3.199 0-4.42zm-.93 46.182l2.271-2.304 2.271 2.304c1.253 1.273 1.253 3.338 0 4.609-.628.637-1.452.956-2.271.956-.823 0-1.643-.319-2.271-.956-1.253-1.271-1.253-3.336 0-4.609zm-6.517-27.052l2.211-2.243 2.211 2.243c1.22 1.239 1.22 3.25 0 4.487-.612.621-1.414.931-2.211.931-.802 0-1.599-.311-2.211-.931-1.22-1.237-1.22-3.247 0-4.487zm-5.041 17.681l2.248-2.281 2.248 2.281c1.24 1.259 1.24 3.303 0 4.561-.622.631-1.437.946-2.248.946-.815 0-1.625-.315-2.248-.946-1.24-1.257-1.24-3.301 0-4.561zm-1.786 15.578l2.294-2.328 2.294 2.328c1.266 1.286 1.266 3.372 0 4.656-.635.644-1.467.966-2.294.966-.832 0-1.659-.322-2.294-.966-1.266-1.284-1.266-3.371 0-4.656zm-4.86 15.343l2.32-2.354 2.32 2.354c1.28 1.3 1.28 3.41 0 4.708-.642.651-1.483.977-2.32.977-.841 0-1.678-.326-2.32-.977-1.28-1.297-1.28-3.407 0-4.708zm.028 18.355l2.368-2.402 2.368 2.402c1.307 1.328 1.307 3.481 0 4.806-.655.665-1.514.997-2.368.997-.858 0-1.713-.332-2.368-.997-1.306-1.325-1.306-3.478 0-4.806zm.597 23.501l2.411-2.446 2.411 2.446c1.33 1.351 1.33 3.544 0 4.893-.667.677-1.542 1.016-2.411 1.016-.874 0-1.744-.339-2.411-1.016-1.33-1.349-1.33-3.542 0-4.893zm2.523 15.494l2.439-2.475 2.439 2.475c1.346 1.367 1.346 3.585 0 4.949-.675.686-1.56 1.027-2.439 1.027-.884 0-1.764-.342-2.439-1.027-1.346-1.364-1.346-3.581 0-4.949zm4.665 23.598c-.889 0-1.772-.344-2.451-1.032-1.352-1.371-1.352-3.6 0-4.974l2.451-2.486 2.451 2.486c1.352 1.374 1.352 3.603 0 4.974-.679.688-1.567 1.032-2.451 1.032zm8.853 20c-.682.691-1.575 1.037-2.464 1.037-.894 0-1.782-.346-2.464-1.037-1.359-1.379-1.359-3.619 0-5l2.464-2.5 2.464 2.5c1.36 1.381 1.36 3.621 0 5zm7.98 17.526c-.687.696-1.585 1.045-2.479 1.045-.899 0-1.793-.349-2.479-1.045-1.368-1.387-1.368-3.642 0-5.031l2.479-2.516 2.479 2.516c1.368 1.39 1.368 3.645 0 5.031zm1.725-18.024l2.547-2.584 2.547 2.584c1.405 1.428 1.405 3.744 0 5.17-.705.715-1.629 1.072-2.547 1.072-.924 0-1.842-.357-2.547-1.072-1.405-1.426-1.405-3.742 0-5.17zm6.338 33.327c-.691.7-1.596 1.051-2.496 1.051-.905 0-1.805-.351-2.496-1.051-1.377-1.396-1.377-3.666 0-5.065l2.496-2.532 2.496 2.532c1.377 1.399 1.377 3.669 0 5.065zm2.487-19.185l2.569-2.606 2.569 2.606c1.417 1.44 1.417 3.776 0 5.214-.711.722-1.643 1.082-2.569 1.082-.932 0-1.858-.36-2.569-1.082-1.417-1.438-1.417-3.774 0-5.214zm6.45 34.803c-.692.703-1.599 1.054-2.501 1.054-.907 0-1.809-.351-2.501-1.054-1.38-1.399-1.38-3.674 0-5.076l2.501-2.538 2.501 2.538c1.38 1.403 1.38 3.677 0 5.076zm1.126-14.568c-1.427-1.447-1.427-3.801 0-5.251l2.588-2.626 2.588 2.626c1.427 1.45 1.427 3.804 0 5.251-.716.727-1.655 1.09-2.588 1.09-.938 0-1.871-.363-2.588-1.09zm10.665 30.313c-.693.702-1.601 1.054-2.503 1.054-.908 0-1.811-.352-2.503-1.054-1.381-1.4-1.381-3.678 0-5.08l2.503-2.54 2.503 2.54c1.381 1.402 1.381 3.679 0 5.08zm2.745-14.806c-.716.727-1.655 1.09-2.588 1.09-.938 0-1.872-.363-2.588-1.09-1.428-1.448-1.428-3.802 0-5.253l2.588-2.626 2.588 2.626c1.428 1.451 1.428 3.805 0 5.253zm1.61-20.641l2.635-2.674 2.635 2.674c1.454 1.477 1.454 3.873 0 5.348-.729.739-1.685 1.109-2.635 1.109-.956 0-1.906-.37-2.635-1.109-1.453-1.475-1.453-3.871 0-5.348zm7.889 49.67c-.689.699-1.591 1.048-2.488 1.048-.902 0-1.799-.349-2.488-1.048-1.373-1.392-1.373-3.654 0-5.049l2.488-2.524 2.488 2.524c1.373 1.395 1.373 3.658 0 5.049zm3.241-13.989c-.716.726-1.653 1.088-2.585 1.088-.938 0-1.87-.362-2.585-1.088-1.426-1.446-1.426-3.798 0-5.246l2.585-2.623 2.585 2.623c1.426 1.448 1.426 3.8 0 5.246zm2.19-15.032c-.723.733-1.669 1.1-2.61 1.1-.946 0-1.888-.366-2.61-1.1-1.44-1.46-1.44-3.834 0-5.297l2.61-2.648 2.61 2.648c1.44 1.463 1.44 3.837 0 5.297zm1.648-22.645l2.641-2.68 2.641 2.68c1.457 1.479 1.457 3.881 0 5.358-.731.741-1.688 1.112-2.641 1.112-.958 0-1.91-.371-2.641-1.112-1.456-1.477-1.456-3.878 0-5.358zm6.907 64.523c-.682.691-1.575 1.037-2.463 1.037-.893 0-1.781-.346-2.463-1.037-1.359-1.378-1.359-3.618 0-4.999l2.463-2.499 2.463 2.499c1.359 1.38 1.359 3.621 0 4.999zm1.774-13.239c-.712.722-1.644 1.083-2.571 1.083-.932 0-1.859-.361-2.571-1.083-1.418-1.438-1.418-3.776 0-5.218l2.571-2.609 2.571 2.609c1.418 1.442 1.418 3.78 0 5.218zm1.159-14.747c-.952 0-1.899-.369-2.626-1.106-1.449-1.469-1.449-3.857 0-5.33l2.626-2.665 2.626 2.665c1.449 1.473 1.449 3.861 0 5.33-.727.737-1.679 1.106-2.626 1.106zm8.744 36.713c-.674.684-1.558 1.026-2.437 1.026-.884 0-1.763-.343-2.437-1.026-1.345-1.363-1.345-3.58 0-4.945l2.437-2.474 2.437 2.474c1.344 1.365 1.344 3.582 0 4.945zm-.863-24.143c-1.427-1.447-1.427-3.8 0-5.25l2.587-2.625 2.587 2.625c1.427 1.45 1.427 3.803 0 5.25-.716.727-1.654 1.09-2.587 1.09-.938-.001-1.871-.364-2.587-1.09zm4.27 13.792c-1.398-1.418-1.398-3.722 0-5.143l2.534-2.571 2.534 2.571c1.398 1.421 1.398 3.725 0 5.143-.702.711-1.62 1.067-2.534 1.067-.918 0-1.832-.356-2.534-1.067zm9.251 19.737c-.664.674-1.534 1.011-2.399 1.011-.87 0-1.735-.337-2.399-1.011-1.323-1.342-1.323-3.523 0-4.867l2.399-2.435 2.399 2.435c1.323 1.343 1.323 3.525 0 4.867zm4.131-33.614l2.569-2.606 2.569 2.606c1.417 1.439 1.417 3.775 0 5.213-.711.721-1.643 1.081-2.569 1.081-.931 0-1.858-.36-2.569-1.081-1.417-1.438-1.417-3.774 0-5.213zm.01 23.533c-1.376-1.396-1.376-3.665 0-5.063l2.495-2.532 2.495 2.532c1.376 1.398 1.376 3.667 0 5.063-.69.7-1.595 1.051-2.495 1.051-.905 0-1.805-.351-2.495-1.051zm9.569 17.652c-.653.661-1.507.992-2.358.992-.855 0-1.705-.331-2.358-.992-1.301-1.319-1.301-3.464 0-4.785l2.358-2.393 2.358 2.393c1.301 1.321 1.301 3.466 0 4.785zm2.344-30.602l2.541-2.577 2.541 2.577c1.402 1.424 1.402 3.734 0 5.156-.703.713-1.625 1.069-2.541 1.069-.921 0-1.837-.356-2.541-1.069-1.402-1.422-1.402-3.733 0-5.156zm2.263 21.055c-1.349-1.368-1.349-3.592 0-4.963l2.445-2.48 2.445 2.48c1.349 1.371 1.349 3.595 0 4.963-.677.687-1.563 1.029-2.445 1.029-.886.001-1.768-.342-2.445-1.029zm9.144 17.449c-.644.653-1.488.979-2.327.979-.844 0-1.683-.326-2.327-.979-1.284-1.302-1.284-3.418 0-4.723l2.327-2.36 2.327 2.36c1.284 1.305 1.284 3.421 0 4.723zm2.567-43.157l2.554-2.592 2.554 2.592c1.409 1.431 1.409 3.754 0 5.183-.707.717-1.633 1.075-2.554 1.075-.926 0-1.847-.358-2.554-1.075-1.409-1.429-1.409-3.752 0-5.183zm2.288 15.105l2.485-2.521 2.485 2.521c1.371 1.393 1.371 3.651 0 5.042-.688.697-1.589 1.046-2.485 1.046-.901 0-1.797-.349-2.485-1.046-1.37-1.391-1.37-3.65 0-5.042zm3.789 21.988c-.87 0-1.736-.337-2.4-1.011-1.324-1.344-1.324-3.526 0-4.871l2.4-2.437 2.4 2.437c1.324 1.345 1.324 3.527 0 4.871-.664.674-1.534 1.011-2.4 1.011zm8.597 12.847c-.633.643-1.463.964-2.289.964-.83 0-1.656-.321-2.289-.964-1.263-1.28-1.263-3.362 0-4.646l2.289-2.322 2.289 2.322c1.263 1.283 1.263 3.365 0 4.646zm.971-22.805c-1.346-1.365-1.346-3.584 0-4.952l2.44-2.476 2.44 2.476c1.346 1.368 1.346 3.587 0 4.952-.676.686-1.561 1.027-2.44 1.027-.885 0-1.765-.341-2.44-1.027zm5.731 14.059c-1.308-1.326-1.308-3.481 0-4.81l2.37-2.405 2.37 2.405c1.308 1.328 1.308 3.483 0 4.81-.656.665-1.515.998-2.37.998-.859 0-1.714-.333-2.37-.998zm9.46 14.386c-.626.635-1.446.952-2.262.952-.82 0-1.636-.317-2.262-.952-1.248-1.266-1.248-3.323 0-4.591l2.262-2.295 2.262 2.295c1.248 1.268 1.248 3.326 0 4.591zm3.39-22.364c-1.322-1.341-1.322-3.52 0-4.863l2.396-2.432 2.396 2.432c1.322 1.344 1.322 3.522 0 4.863-.663.673-1.532 1.01-2.396 1.01-.869 0-1.733-.337-2.396-1.01zm6.288 15.064c-.846 0-1.687-.327-2.332-.981-1.287-1.305-1.287-3.426 0-4.732l2.332-2.366 2.332 2.366c1.287 1.307 1.287 3.428 0 4.732-.645.653-1.491.981-2.332.981zm8.029 11.818c-.623.632-1.438.947-2.25.947-.816 0-1.627-.315-2.25-.947-1.241-1.259-1.241-3.305 0-4.565l2.25-2.282 2.25 2.282c1.241 1.26 1.241 3.306 0 4.565zm1.022-24.697c-1.301-1.319-1.301-3.464 0-4.786l2.359-2.393 2.359 2.393c1.301 1.322 1.301 3.467 0 4.786-.653.662-1.508.993-2.359.993-.855 0-1.706-.331-2.359-.993zm8.971 13.976c-.641.65-1.481.976-2.316.976-.84 0-1.675-.325-2.316-.976-1.278-1.295-1.278-3.401 0-4.7l2.316-2.35 2.316 2.35c1.278 1.299 1.278 3.405 0 4.7zm.743-54.833c-.686.695-1.584 1.043-2.478 1.043-.898 0-1.792-.348-2.478-1.043-1.367-1.386-1.367-3.639 0-5.027l2.478-2.514 2.478 2.514c1.367 1.389 1.367 3.642 0 5.027zm2.046 23.6l2.367-2.4 2.367 2.4c1.305 1.327 1.305 3.479 0 4.803-.655.664-1.513.996-2.367.996-.858 0-1.711-.332-2.367-.996-1.305-1.325-1.305-3.476 0-4.803zm4.832 43.338c-.62.629-1.431.943-2.239.943-.812 0-1.619-.314-2.239-.943-1.235-1.252-1.235-3.288 0-4.543l2.239-2.271 2.239 2.271c1.236 1.255 1.236 3.291 0 4.543zm.683-23.82c-.848 0-1.691-.328-2.339-.984-1.291-1.309-1.291-3.436 0-4.746l2.339-2.373 2.339 2.373c1.291 1.311 1.291 3.438 0 4.746-.648.656-1.496.984-2.339.984zm8.38 11.758c-.638.647-1.475.971-2.306.971-.836 0-1.668-.323-2.306-.971-1.272-1.29-1.272-3.388 0-4.68l2.306-2.34 2.306 2.34c1.272 1.293 1.272 3.39 0 4.68zm6.621 13.802c-.614.624-1.42.936-2.221.936-.806 0-1.606-.312-2.221-.936-1.226-1.243-1.226-3.263 0-4.508l2.221-2.254 2.221 2.254c1.226 1.245 1.226 3.265 0 4.508zm8.164-12.102c-.629.639-1.453.958-2.273.958-.824 0-1.645-.319-2.273-.958-1.255-1.271-1.255-3.339 0-4.613l2.273-2.308 2.273 2.308c1.255 1.275 1.255 3.342 0 4.613zm.107-37.704c-1.281-1.299-1.281-3.41 0-4.712l2.322-2.355 2.322 2.355c1.281 1.302 1.281 3.413 0 4.712-.643.652-1.485.978-2.322.978-.842 0-1.68-.325-2.322-.978zm8.474 49.895c-.609.618-1.407.927-2.201.927-.798 0-1.592-.309-2.201-.927-1.214-1.23-1.214-3.232 0-4.466l2.201-2.232 2.201 2.232c1.214 1.233 1.214 3.235 0 4.466zm.157-24.229c-.632.642-1.46.962-2.283.962-.828 0-1.651-.32-2.283-.962-1.26-1.277-1.26-3.354 0-4.633l2.283-2.317 2.283 2.317c1.26 1.28 1.26 3.356 0 4.633zm-.145-12.77c-.834 0-1.664-.323-2.301-.969-1.27-1.287-1.27-3.38 0-4.669l2.301-2.334 2.301 2.334c1.27 1.289 1.27 3.382 0 4.669-.637.646-1.471.969-2.301.969zm8.384 25.145c-.623.633-1.439.948-2.252.948-.816 0-1.629-.315-2.252-.948-1.242-1.26-1.242-3.308 0-4.569l2.252-2.285 2.252 2.285c1.242 1.262 1.242 3.31 0 4.569zm1.672-19.495l2.272-2.306 2.272 2.306c1.254 1.274 1.254 3.341 0 4.612-.629.639-1.453.957-2.272.957-.824 0-1.644-.318-2.272-.957-1.253-1.271-1.253-3.337 0-4.612zm7.405 29.906c-.602.611-1.391.917-2.176.917-.789 0-1.574-.306-2.176-.917-1.201-1.217-1.201-3.196 0-4.416l2.176-2.208 2.176 2.208c1.201 1.22 1.201 3.2 0 4.416zm6.266-13.471c-.617.626-1.427.939-2.231.939-.81 0-1.614-.313-2.231-.939-1.231-1.249-1.231-3.278 0-4.528l2.231-2.265 2.231 2.265c1.232 1.249 1.232 3.279 0 4.528zm1.683-14.244c-1.23-1.247-1.23-3.274 0-4.524l2.229-2.262 2.229 2.262c1.23 1.25 1.23 3.277 0 4.524-.617.626-1.426.938-2.229.938-.808 0-1.612-.312-2.229-.938zm8.182 24.565c-.598.606-1.381.909-2.16.909-.783 0-1.562-.303-2.16-.909-1.191-1.209-1.191-3.173 0-4.384l2.16-2.191 2.16 2.191c1.191 1.211 1.191 3.175 0 4.384zm5.61-14.132c-.611.62-1.412.931-2.209.931-.801 0-1.598-.311-2.209-.931-1.22-1.236-1.22-3.245 0-4.483l2.209-2.242 2.209 2.242c1.22 1.238 1.22 3.247 0 4.483zm2.629-34.552l2.27-2.304 2.27 2.304c1.253 1.271 1.253 3.336 0 4.605-.628.638-1.451.956-2.27.956-.823 0-1.642-.318-2.27-.956-1.253-1.27-1.253-3.334 0-4.605zm.275 14.902l2.219-2.25 2.219 2.25c1.224 1.243 1.224 3.261 0 4.502-.614.623-1.419.934-2.219.934-.805 0-1.604-.311-2.219-.934-1.223-1.241-1.223-3.259 0-4.502zm6.857 30.335c-.593.602-1.37.902-2.143.902-.777 0-1.55-.301-2.143-.902-1.183-1.199-1.183-3.147 0-4.349l2.143-2.175 2.143 2.175c1.182 1.201 1.182 3.15 0 4.349zm4.405-13.769c-.605.614-1.398.921-2.188.921-.793 0-1.582-.307-2.188-.921-1.207-1.224-1.207-3.214 0-4.439l2.188-2.22 2.188 2.22c1.207 1.225 1.207 3.216 0 4.439zm2.526-20.659c-1.238-1.256-1.238-3.298 0-4.556l2.245-2.278 2.245 2.278c1.238 1.258 1.238 3.3 0 4.556-.621.63-1.436.945-2.245.945-.814 0-1.624-.315-2.245-.945zm8.477 29.399c-.593.602-1.369.902-2.142.902-.776 0-1.549-.301-2.142-.902-1.181-1.197-1.181-3.145 0-4.345l2.142-2.173 2.142 2.173c1.181 1.201 1.181 3.148 0 4.345zm.696-16.446c-.61.619-1.409.928-2.204.928-.799 0-1.594-.309-2.204-.928-1.215-1.232-1.215-3.236 0-4.472l2.204-2.235 2.204 2.235c1.215 1.236 1.215 3.24 0 4.472zm1.148-56.891l2.742-2.782 2.742 2.782c1.514 1.537 1.514 4.031 0 5.565-.759.77-1.753 1.154-2.742 1.154-.994 0-1.983-.385-2.742-1.154-1.514-1.534-1.514-4.028 0-5.565zm1.763 16.05l2.479-2.516 2.479 2.516c1.367 1.389 1.367 3.644 0 5.03-.687.696-1.585 1.044-2.479 1.044-.898 0-1.793-.348-2.479-1.044-1.367-1.386-1.367-3.641 0-5.03zm1.186 15.156l2.285-2.318 2.285 2.318c1.261 1.281 1.261 3.359 0 4.638-.633.642-1.461.962-2.285.962-.829 0-1.652-.32-2.285-.962-1.261-1.279-1.261-3.357 0-4.638zm7.402 34.991c-.6.607-1.385.911-2.166.911-.785 0-1.566-.304-2.166-.911-1.194-1.212-1.194-3.182 0-4.396l2.166-2.197 2.166 2.197c1.195 1.214 1.195 3.184 0 4.396zm.34-16.239c-.612.621-1.413.932-2.211.932-.802 0-1.599-.311-2.211-.932-1.22-1.236-1.22-3.247 0-4.486l2.211-2.244 2.211 2.244c1.22 1.239 1.22 3.249 0 4.486zm-.218-75.372c-1.128 0-2.25-.437-3.111-1.31-1.716-1.741-1.716-4.569 0-6.313l3.111-3.156 3.111 3.156c1.716 1.744 1.716 4.572 0 6.313-.861.873-1.989 1.31-3.111 1.31zm5.199 12.587l2.804-2.845 2.804 2.845c1.547 1.571 1.547 4.121 0 5.689-.776.787-1.793 1.181-2.804 1.181-1.017 0-2.027-.394-2.804-1.181-1.547-1.567-1.547-4.117 0-5.689zm.358 16.391l2.615-2.653 2.615 2.653c1.442 1.466 1.442 3.843 0 5.306-.725.734-1.672 1.102-2.615 1.102-.948 0-1.891-.367-2.615-1.102-1.442-1.463-1.442-3.84 0-5.306zm.906 15.004l2.342-2.377 2.342 2.377c1.292 1.312 1.292 3.441 0 4.752-.648.657-1.497.986-2.342.986-.849 0-1.693-.329-2.342-.986-1.292-1.311-1.292-3.44 0-4.752zm1.043 13.524l2.223-2.256 2.223 2.256c1.227 1.246 1.227 3.268 0 4.511-.615.624-1.421.937-2.223.937-.806 0-1.607-.312-2.223-.937-1.226-1.243-1.226-3.265 0-4.511zm5.245 30.562c-.591.599-1.364.898-2.134.898-.773 0-1.543-.3-2.134-.898-1.178-1.194-1.178-3.135 0-4.331l2.134-2.165 2.134 2.165c1.178 1.196 1.178 3.137 0 4.331zm1.648-12.816c-.602.611-1.391.916-2.175.916-.788 0-1.573-.305-2.175-.916-1.2-1.216-1.2-3.194 0-4.413l2.175-2.206 2.175 2.206c1.2 1.219 1.2 3.198 0 4.413zm1.593-69.536c-1.08 0-2.153-.418-2.979-1.254-1.643-1.666-1.643-4.374 0-6.043l2.979-3.021 2.979 3.021c1.643 1.669 1.643 4.377 0 6.043-.825.836-1.904 1.254-2.979 1.254zm4.282 11.659l2.701-2.74 2.701 2.74c1.489 1.514 1.489 3.97 0 5.48-.748.758-1.728 1.137-2.701 1.137-.979 0-1.953-.379-2.701-1.137-1.49-1.511-1.49-3.967 0-5.48zm.631 16.053l2.425-2.46 2.425 2.46c1.337 1.358 1.337 3.563 0 4.92-.672.681-1.551 1.021-2.425 1.021-.879 0-1.753-.34-2.425-1.021-1.337-1.356-1.337-3.561 0-4.92zm.643 14.338l2.259-2.292 2.259 2.292c1.245 1.266 1.245 3.319 0 4.583-.626.634-1.444.951-2.259.951-.818 0-1.633-.317-2.259-.951-1.245-1.264-1.245-3.317 0-4.583zm1.806 13.685l2.174-2.205 2.174 2.205c1.198 1.219 1.198 3.195 0 4.411-.602.61-1.39.915-2.174.915-.788 0-1.572-.305-2.174-.915-1.198-1.216-1.198-3.193 0-4.411zm4.693 18.462c-.59.599-1.363.897-2.132.897-.773 0-1.542-.299-2.132-.897-1.176-1.192-1.176-3.132 0-4.326l2.132-2.163 2.132 2.163c1.176 1.194 1.176 3.133 0 4.326zm1.687-69.916c-1.566-1.589-1.566-4.171 0-5.762l2.839-2.881 2.839 2.881c1.566 1.591 1.566 4.173 0 5.762-.785.797-1.815 1.195-2.839 1.195-1.03 0-2.054-.399-2.839-1.195zm4.829 12.643l2.5-2.537 2.5 2.537c1.38 1.401 1.38 3.675 0 5.074-.691.701-1.599 1.053-2.5 1.053-.906 0-1.809-.352-2.5-1.053-1.38-1.399-1.38-3.672 0-5.074zm.829 15.528l2.297-2.331 2.297 2.331c1.268 1.287 1.268 3.376 0 4.66-.636.646-1.469.968-2.297.968-.833 0-1.661-.322-2.297-.968-1.268-1.284-1.268-3.372 0-4.66zm1.062 14.007l2.167-2.199 2.167 2.199c1.195 1.215 1.195 3.186 0 4.397-.6.608-1.386.913-2.167.913-.786 0-1.567-.305-2.167-.913-1.195-1.211-1.195-3.182 0-4.397zm5.105 18.283c-.589.598-1.36.896-2.128.896-.771 0-1.539-.299-2.128-.896-1.174-1.19-1.174-3.125 0-4.317l2.128-2.159 2.128 2.159c1.174 1.192 1.174 3.126 0 4.317zm2.485-93.797l3.036-3.081 3.036 3.081c1.675 1.702 1.675 4.463 0 6.161-.84.853-1.941 1.279-3.036 1.279-1.101 0-2.196-.427-3.036-1.279-1.675-1.698-1.675-4.459 0-6.161zm.307 17.277l2.854-2.895 2.854 2.895c1.573 1.599 1.573 4.193 0 5.789-.79.801-1.824 1.201-2.854 1.201-1.034 0-2.063-.4-2.854-1.201-1.573-1.596-1.573-4.19 0-5.789zm.393 21.906c-1.455-1.475-1.455-3.873 0-5.352l2.637-2.675 2.637 2.675c1.455 1.479 1.455 3.877 0 5.352-.729.74-1.686 1.111-2.637 1.111-.956.001-1.907-.371-2.637-1.111zm3.747 12.256l2.393-2.428 2.393 2.428c1.319 1.34 1.319 3.516 0 4.854-.663.672-1.53 1.008-2.393 1.008-.867 0-1.729-.336-2.393-1.008-1.32-1.338-1.32-3.514 0-4.854zm1.501 14.312l2.177-2.208 2.177 2.208c1.2 1.22 1.2 3.199 0 4.417-.603.61-1.392.916-2.177.916-.789 0-1.574-.306-2.177-.916-1.201-1.218-1.201-3.198 0-4.417zm4.627 17.938c-.585.594-1.353.891-2.115.891-.767 0-1.53-.297-2.115-.891-1.167-1.184-1.167-3.107 0-4.293l2.115-2.146 2.115 2.146c1.167 1.186 1.167 3.11 0 4.293zm2.614-113.087l3.291-3.34 3.291 3.34c1.815 1.845 1.815 4.837 0 6.679-.911.924-2.104 1.386-3.291 1.386-1.193 0-2.38-.462-3.291-1.386-1.816-1.842-1.816-4.834 0-6.679zm1.655 19.632l3.054-3.099 3.054 3.099c1.685 1.711 1.685 4.487 0 6.195-.846.857-1.952 1.286-3.054 1.286-1.107 0-2.208-.429-3.054-1.286-1.685-1.708-1.685-4.484 0-6.195zm6.157 23.166c-.78.791-1.802 1.187-2.817 1.187-1.021 0-2.037-.396-2.817-1.187-1.554-1.576-1.554-4.138 0-5.717l2.817-2.858 2.817 2.858c1.554 1.579 1.554 4.141 0 5.717zm-.07 16.763c-.753.763-1.738 1.145-2.718 1.145-.985 0-1.965-.382-2.718-1.145-1.499-1.521-1.499-3.991 0-5.514l2.718-2.758 2.718 2.758c1.499 1.523 1.499 3.993 0 5.514zm-5.835 15.426c-1.37-1.389-1.37-3.646 0-5.038l2.482-2.52 2.482 2.52c1.37 1.392 1.37 3.649 0 5.038-.687.697-1.587 1.046-2.482 1.046-.9-.001-1.796-.349-2.482-1.046zm8.896 26.488c-.586.595-1.354.892-2.117.892-.768 0-1.531-.297-2.117-.892-1.168-1.185-1.168-3.109 0-4.296l2.117-2.148 2.117 2.148c1.168 1.186 1.168 3.111 0 4.296zm.53-12.938c-.615.624-1.421.936-2.223.936-.806 0-1.607-.312-2.223-.936-1.227-1.244-1.227-3.265 0-4.511l2.223-2.255 2.223 2.255c1.226 1.247 1.226 3.267 0 4.511zm3.221-80.283l3-3.044 3 3.044c1.655 1.681 1.655 4.409 0 6.088-.83.842-1.918 1.263-3 1.263-1.088 0-2.17-.421-3-1.263-1.655-1.679-1.655-4.407 0-6.088zm.872 61.791c-1.285-1.304-1.285-3.423 0-4.728l2.33-2.364 2.33 2.364c1.285 1.305 1.285 3.424 0 4.728-.646.653-1.49.98-2.33.98-.844.001-1.684-.327-2.33-.98zm8.464 15.696c-.593.602-1.369.901-2.141.901-.776 0-1.548-.3-2.141-.901-1.181-1.197-1.181-3.144 0-4.343l2.141-2.172 2.141 2.172c1.181 1.2 1.181 3.146 0 4.343zm1.644-110.551l3.227-3.273 3.227 3.273c1.779 1.809 1.779 4.742 0 6.548-.894.905-2.063 1.358-3.227 1.358-1.17 0-2.333-.453-3.227-1.358-1.779-1.806-1.779-4.74 0-6.548zm5.264 38.501l2.782 2.824c1.535 1.559 1.535 4.09 0 5.646-.77.781-1.778 1.172-2.782 1.172-1.009 0-2.013-.391-2.782-1.172-1.535-1.557-1.535-4.088 0-5.646l2.782-2.824zm-3.327 42.076l2.392-2.427 2.392 2.427c1.32 1.34 1.32 3.516 0 4.854-.662.672-1.529 1.007-2.392 1.007-.867 0-1.729-.335-2.392-1.007-1.32-1.339-1.32-3.514 0-4.854zm6.515 18.462c-.609.617-1.406.927-2.2.927-.798 0-1.591-.31-2.2-.927-1.214-1.231-1.214-3.232 0-4.465l2.2-2.233 2.2 2.233c1.214 1.232 1.214 3.233 0 4.465zm1.241-30.434c-.713.723-1.646 1.084-2.575 1.084-.934 0-1.862-.361-2.575-1.084-1.421-1.441-1.421-3.783 0-5.227l2.575-2.613 2.575 2.613c1.421 1.444 1.421 3.786 0 5.227zm-.894-38.545c-1.077 0-2.148-.417-2.971-1.251-1.64-1.662-1.64-4.364 0-6.029l2.971-3.015 2.971 3.015c1.64 1.665 1.64 4.367 0 6.029-.823.834-1.9 1.251-2.971 1.251zm4.984 20.523l2.597-2.635 2.597 2.635c1.433 1.455 1.433 3.817 0 5.27-.719.729-1.66 1.094-2.597 1.094-.941 0-1.878-.364-2.597-1.094-1.433-1.453-1.433-3.815 0-5.27zm5.606 30.702c-.637.646-1.47.968-2.299.968-.833 0-1.662-.322-2.299-.968-1.268-1.286-1.268-3.377 0-4.665l2.299-2.332 2.299 2.332c1.267 1.288 1.267 3.379 0 4.665zm-1.279-42.379c-1.528-1.55-1.528-4.069 0-5.621l2.771-2.812 2.771 2.812c1.528 1.552 1.528 4.071 0 5.621-.767.778-1.771 1.167-2.771 1.167-1.005 0-2.004-.389-2.771-1.167zm8.553 28.726c-.662.672-1.529 1.008-2.393 1.008-.867 0-1.73-.336-2.393-1.008-1.32-1.339-1.32-3.515 0-4.855l2.393-2.428 2.393 2.428c1.32 1.341 1.32 3.517 0 4.855zm7.172-16.307c-.696.706-1.609 1.06-2.517 1.06-.912 0-1.82-.354-2.517-1.06-1.389-1.408-1.389-3.697 0-5.107l2.517-2.554 2.517 2.554c1.389 1.41 1.389 3.699 0 5.107zm6.126-15.873c-.721.731-1.665 1.097-2.604 1.097-.944 0-1.883-.365-2.604-1.097-1.437-1.456-1.437-3.824 0-5.283l2.604-2.642 2.604 2.642c1.436 1.459 1.436 3.827 0 5.283zm5.253-19.729c-.749.76-1.73 1.14-2.707 1.14-.981 0-1.958-.38-2.707-1.14-1.493-1.515-1.493-3.976 0-5.493l2.707-2.746 2.707 2.746c1.493 1.518 1.493 3.979 0 5.493zm3.435-20.71c-.775.787-1.791 1.18-2.801 1.18-1.016 0-2.025-.393-2.801-1.18-1.546-1.566-1.546-4.113 0-5.684l2.801-2.842 2.801 2.842c1.546 1.571 1.546 4.118 0 5.684zm.907-21.123c-.789.8-1.823 1.201-2.852 1.201-1.034 0-2.062-.4-2.852-1.201-1.574-1.596-1.574-4.189 0-5.788l2.852-2.894 2.852 2.894c1.574 1.599 1.574 4.192 0 5.788z"/></svg>